<?xml version="1.0" encoding="utf-8"?>
<!-- Generator: Adobe Illustrator 23.0.1, SVG Export Plug-In . SVG Version: 6.00 Build 0)  -->
<svg version="1.1" id="OBJECTS" xmlns="http://www.w3.org/2000/svg" xmlns:xlink="http://www.w3.org/1999/xlink" x="0px" y="0px"
	 viewBox="0 0 750 500" style="enable-background:new 0 0 750 500;" xml:space="preserve">
<style type="text/css">
	.st0{fill-rule:evenodd;clip-rule:evenodd;fill:#19194F;}
	.st1{fill-rule:evenodd;clip-rule:evenodd;fill:#D7766D;}
	.st2{fill-rule:evenodd;clip-rule:evenodd;fill:#ACCBDB;}
	.st3{fill-rule:evenodd;clip-rule:evenodd;fill:#385DA2;}
	.st4{fill-rule:evenodd;clip-rule:evenodd;fill:#D77F68;}
	.st5{fill-rule:evenodd;clip-rule:evenodd;fill:#E6AD83;}
	.st6{fill-rule:evenodd;clip-rule:evenodd;fill:#EBBF9E;}
	.st7{fill-rule:evenodd;clip-rule:evenodd;fill:#12151D;}
	.st8{fill-rule:evenodd;clip-rule:evenodd;fill:#FFFFFF;}
	.st9{fill-rule:evenodd;clip-rule:evenodd;fill:#D26070;}
	.st10{fill-rule:evenodd;clip-rule:evenodd;fill:#CF4A60;}
	.st11{fill-rule:evenodd;clip-rule:evenodd;fill:#BA3147;}
	.st12{fill-rule:evenodd;clip-rule:evenodd;fill:#2C2A64;}
	.st13{fill-rule:evenodd;clip-rule:evenodd;fill:#D3E4EC;}
	.st14{fill-rule:evenodd;clip-rule:evenodd;fill:#E7F0F4;}
	.st15{fill-rule:evenodd;clip-rule:evenodd;fill:#F1D3C8;}
	.st16{fill-rule:evenodd;clip-rule:evenodd;fill:#CFD0D2;}
	.st17{fill-rule:evenodd;clip-rule:evenodd;fill:#2F3A72;}
	.st18{fill-rule:evenodd;clip-rule:evenodd;fill:#5E90CC;}
	.st19{fill-rule:evenodd;clip-rule:evenodd;fill:#232458;}
	.st20{fill-rule:evenodd;clip-rule:evenodd;fill:#304786;}
	.st21{fill-rule:evenodd;clip-rule:evenodd;fill:#4377B3;}
	.st22{fill-rule:evenodd;clip-rule:evenodd;fill:#F0F5FB;}
	.st23{fill-rule:evenodd;clip-rule:evenodd;fill:#ADB3D9;}
</style>
<g>
	<polygon class="st0" points="612.38,408.03 456.65,408.03 456.65,498.9 602.51,498.9 	"/>
	<path class="st0" d="M456.51,193.09c0,0-13.96,3.75-21.93,21.02c-7.98,17.26-27.41,71.76-32.27,87.05
		c-4.86,15.29,12.77,80.71,35.25,115.57h29.54c0,0-28.53-87.21-29.76-95.6c-1.23-8.38,27-57.21,27-57.21
		C472.12,239.46,471.65,215.03,456.51,193.09z"/>
	<path class="st1" d="M534.13,107.32L534.13,107.32c13.11,0,23.83,18.34,23.83,40.75v33.1c0,22.41-10.72,40.75-23.83,40.75l0,0
		c-13.11,0-23.83-18.34-23.83-40.75v-33.1C510.3,125.65,521.02,107.32,534.13,107.32z"/>
	<path class="st0" d="M612.53,193.09c0,0,13.96,3.75,21.93,21.02c7.98,17.26,27.41,71.76,32.27,87.05
		c4.86,15.29-12.77,80.71-35.25,115.57h-29.54c0,0,28.53-87.21,29.76-95.6c1.23-8.38-27-57.21-27-57.21
		C596.91,239.46,597.38,215.03,612.53,193.09z"/>
	<path class="st0" d="M540.38,190.93l-3.86,0.46l-2,1.37l-2-1.37l-3.86-0.46l-22.75-17.85l-49.4,20l-2.46,47.4
		c3.69,47.11,15.29,122.65,15.29,126.3c0,3.65-7.83,29.24-12.69,44.79h77.87h77.87c-4.86-15.56-12.69-41.14-12.69-44.79
		c0-3.65,11.6-79.19,15.29-126.3l-2.46-47.4l-49.4-20L540.38,190.93z"/>
	<path class="st2" d="M529.43,191.73l2.31-0.34c0,0,0.46,0.42,0.52,1.15c0.07,0.72,0.12,2.86,0.12,2.86l-1.77,0.55
		c0,0-3.5,0.09-3.47-0.04C527.18,195.77,529.43,191.73,529.43,191.73z"/>
	<path class="st2" d="M538.83,191.73l-2.31-0.34c0,0-0.46,0.42-0.52,1.15c-0.07,0.72-0.12,2.86-0.12,2.86l1.77,0.55
		c0,0,3.5,0.09,3.47-0.04C541.08,195.77,538.83,191.73,538.83,191.73z"/>
	<path class="st3" d="M557.96,165.53c0,0,2.05-0.31,2.76,0c0.71,0.31,3.12,8.85,4.61,10.95c0,0,1.35,1.73,0.35,4.62
		c-0.99,2.9-13.96,26.69-13.96,26.69s-0.92,1.26-2.41,0.03c-1.49-1.23-12.79-16.43-12.79-16.43l21.44-23.95V165.53z"/>
	<path class="st3" d="M510.3,165.77c0,0-2.05-0.31-2.76,0c-0.71,0.31-3.12,8.61-4.61,10.71c0,0-1.35,1.73-0.36,4.62
		c0.99,2.9,13.96,26.69,13.96,26.69s0.92,1.26,2.41,0.03c1.49-1.23,12.79-16.43,12.79-16.43l-21.44-23.72V165.77z"/>
	<g>
		<path class="st4" d="M577.4,100.54c0.32,0.05,0.64,0.1,0.95,0.17l0.01,0l0,0c5.79,1.25,10.15,6.37,10.22,12.54
			c0.08,7.17-5.66,13.06-12.83,13.14c-7.17,0.09-13.06-5.66-13.14-12.83c-0.05-4.17,1.87-7.9,4.89-10.31
			c-0.36,3.83,0.22,8.58,5.11,9.09l-0.09-7.49C572.48,101.81,575.32,100.44,577.4,100.54z"/>
		<path class="st4" d="M491.82,100.52c-0.32,0.04-0.64,0.09-0.95,0.16l-0.01,0v0c-5.8,1.17-10.24,6.22-10.4,12.39
			c-0.18,7.17,5.48,13.13,12.65,13.32c7.17,0.19,13.14-5.48,13.32-12.64c0.11-4.17-1.76-7.93-4.75-10.38
			c0.3,3.84-0.34,8.58-5.24,9.02l0.19-7.49C496.71,101.87,493.89,100.46,491.82,100.52z"/>
	</g>
	<path class="st5" d="M534.52,165.57c-24.24,0-44.47-29.91-44.47-53.53V80.67c0-24.46,20.01-44.46,44.46-44.46h0.01
		c24.45,0,44.46,20.01,44.46,44.46v30.71C578.98,137.26,561.34,165.57,534.52,165.57z"/>
	<g>
		<path class="st1" d="M565.04,110.88c-4.14,0.08-7.43,3.49-7.36,7.63c0.08,4.14,3.5,7.43,7.63,7.35c4.14-0.08,7.43-3.49,7.36-7.63
			C572.6,114.1,569.18,110.8,565.04,110.88z"/>
		<path class="st1" d="M503.71,112.07c-4.14,0.08-7.43,3.49-7.35,7.63c0.08,4.14,3.49,7.43,7.63,7.36c4.14-0.08,7.43-3.49,7.36-7.63
			C511.27,115.29,507.85,112,503.71,112.07z"/>
	</g>
	<path class="st0" d="M519.88,92.54c0.76,0.69,0.81,1.87,0.12,2.63c-0.69,0.76-1.87,0.81-2.63,0.12c-0.01-0.01-4.54-4.27-10.68-2.72
		c-1,0.25-2.02-0.35-2.27-1.35c-0.25-1,0.35-2.02,1.35-2.27C513.88,86.89,519.86,92.52,519.88,92.54z"/>
	<path class="st0" d="M563.29,89.29c1,0.26,1.59,1.28,1.33,2.27c-0.26,1-1.28,1.59-2.27,1.33c-0.01,0-6-1.67-10.71,2.56
		c-0.77,0.69-1.95,0.63-2.64-0.14c-0.69-0.77-0.63-1.95,0.14-2.64C555.36,87.08,563.27,89.28,563.29,89.29z"/>
	<path class="st6" d="M535.71,113.05c0.83,2.25,2.28,6.32,2.15,7.01c-0.17,0.96-5.1,1.84-6.39,0.58c-0.86-0.84,0.21-4.51,1.14-6.98
		C533.89,110.28,534.6,110.02,535.71,113.05z"/>
	<g>
		<path class="st7" d="M543.86,130.82c0,5.16-4.18,9.34-9.34,9.34c-5.16,0-9.34-4.18-9.34-9.34c0-0.95,0.77-1.72,1.72-1.72h15.25
			C543.09,129.1,543.86,129.87,543.86,130.82z"/>
		<path class="st8" d="M527.84,129.1h13.36v1.58c0,0.82-0.67,1.5-1.5,1.5h-10.37c-0.82,0-1.5-0.67-1.5-1.5V129.1z"/>
		<path class="st9" d="M541.29,137.26c-1.7,1.79-4.11,2.91-6.77,2.91c-2.66,0-5.07-1.12-6.77-2.91c1.7-1.79,4.11-2.91,6.77-2.91
			C537.18,134.35,539.59,135.47,541.29,137.26z"/>
	</g>
	<g>
		<path class="st0" d="M512.77,109.83c2.95,0,5.35-2.41,5.35-5.36c0-2.95-2.4-5.35-5.35-5.35c-2.95,0-5.36,2.41-5.36,5.35
			C507.41,107.42,509.82,109.83,512.77,109.83z"/>
		<path class="st0" d="M556.26,109.83c2.95,0,5.36-2.41,5.36-5.36c0-2.95-2.41-5.35-5.36-5.35c-2.95,0-5.35,2.41-5.35,5.35
			C550.91,107.42,553.31,109.83,556.26,109.83z"/>
	</g>
	<g>
		<g>
			<path class="st10" d="M521.37,193.13c0.29-1.43,1.59-1.14,1.59-1.14l8.23,4.2l3.33,3.87l-3.33,3.87l-8.23,4.2
				c0,0-1.3,0.28-1.59-1.14l2.49-6.93L521.37,193.13z"/>
			<path class="st10" d="M547.67,193.13c-0.29-1.43-1.59-1.14-1.59-1.14l-8.23,4.2l-3.33,3.87l3.33,3.87l8.23,4.2
				c0,0,1.3,0.28,1.59-1.14l-2.49-6.93L547.67,193.13z"/>
		</g>
		<path class="st11" d="M532.78,194.6h3.48c0.87,0,1.59,0.71,1.59,1.59v7.75c0,0.87-0.71,1.59-1.59,1.59h-3.48
			c-0.87,0-1.59-0.71-1.59-1.59v-7.75C531.19,195.31,531.9,194.6,532.78,194.6z"/>
	</g>
	<path class="st2" d="M567.4,146.39c-0.37,0.04-0.7-0.23-0.74-0.6c-0.04-0.37,0.23-0.71,0.6-0.75l0.24-0.03
		c4.03-0.5,7.33-4.22,9.55-8.72c1.71-3.48,2.77-7.4,3.03-10.7c0.47-0.17,0.94-0.38,1.39-0.6c-0.17,3.61-1.3,8.03-3.2,11.9
		c-2.4,4.87-6.04,8.9-10.59,9.47L567.4,146.39z"/>
	<path class="st2" d="M501.64,146.39c0.37,0.04,0.7-0.23,0.75-0.6c0.04-0.37-0.23-0.71-0.6-0.75l-0.24-0.03
		c-4.03-0.5-7.33-4.22-9.55-8.72c-1.71-3.48-2.77-7.4-3.03-10.7c-0.48-0.17-0.94-0.38-1.39-0.6c0.17,3.61,1.3,8.03,3.21,11.9
		c2.4,4.87,6.04,8.9,10.59,9.47L501.64,146.39z"/>
	<g>
		<path class="st0" d="M516.58,67.43c-4.74,0-13.89,2.24-13.89,11.7c0,9.46-1.79,16.95-7.83,16.95c0,0,0,3.27,0,7.42
			c0,4.15-0.4,8.34-4.32,8.34c0-8.92-2.72-12.43-2.72-12.43s0-11.93,0-22.37c0-10.43,2.93-24.45,16.63-34.07
			c17.72-12.45,42.41-12.45,60.13,0c13.69,9.62,16.63,23.64,16.63,34.07c0,10.43,0,22.37,0,22.37s-2.72,3.51-2.72,12.43
			c-3.91,0-4.32-4.19-4.32-8.34c0-4.15,0-7.42,0-7.42c-6.03,0-7.83-7.5-7.83-16.95c0-9.45-9.15-11.7-13.89-11.7
			C540.5,67.43,528.54,67.43,516.58,67.43z"/>
		<path class="st0" d="M487.82,99.42c0,0,3.81,22.77,3.81,33.53c0,10.76,13.14,27.6,24.56,31.52c11.41,3.91,15.38,3.67,18.33,3.67
			c2.95,0,6.92,0.24,18.33-3.67c11.41-3.91,25.51-20.52,25.51-31.28c0-10.76,2.86-33.77,2.86-33.77l-6.08-3.57
			c0,6.11-2.3,20.17-2.75,27.91c-0.47,7.98-6.49,8.72-14.29,10.81c-5.57,1.49-6.81,16.45-11.3,16.45c-4.49,0-7.25-1.72-8.5-2.24
			c-1.25-0.52-3.78-0.54-3.78-0.54s-2.53,0.01-3.78,0.54c-1.25,0.52-4.01,2.24-8.5,2.24c-4.49,0-4.78-15.2-10.34-16.69
			c-7.8-2.09-13.82-2.83-14.29-10.81c-0.45-7.74-3.7-21.57-3.7-27.67L487.82,99.42z"/>
		<path class="st12" d="M506.97,70.32c-2.45,1.79-4.28,4.57-4.28,8.8c0,9.46-1.79,16.95-7.83,16.95v0.84v1.35v3.1
			c0,1.94-1.58,3.52-3.52,3.52l0,0c-1.94,0-3.52-1.58-3.52-3.52v-4.45l0-0.14V77.05c0-2.64,0.19-5.51,0.69-8.48
			C496.68,64.58,506.97,70.32,506.97,70.32L506.97,70.32L506.97,70.32z M574.17,96.78l0,0.14v4.45c0,1.94,1.58,3.52,3.52,3.52l0,0
			c1.94,0,3.52-1.58,3.52-3.52v-3.1v-1.35V77.05c0-2.64-0.19-5.5-0.69-8.47l-0.01,0c-8.12-3.97-18.34,1.69-18.45,1.75
			c2.45,1.79,4.28,4.57,4.28,8.81c0,9.46,1.79,16.95,7.83,16.95V96.78z"/>
	</g>
	<path class="st2" d="M571,118.76c-0.11,0.38-0.51,0.59-0.89,0.48c-0.38-0.11-0.59-0.51-0.48-0.89c0.01-0.04,3.61-12.24,9.79-17.31
		l0.37,1.51C574.33,107.48,571.01,118.72,571,118.76z"/>
	<path class="st2" d="M498.04,118.76c0.11,0.38,0.51,0.59,0.89,0.48c0.38-0.11,0.59-0.51,0.48-0.89
		c-0.01-0.04-3.61-12.24-9.79-17.31l-0.37,1.51C494.71,107.48,498.03,118.72,498.04,118.76z"/>
	<g>
		<path class="st8" d="M534.52,113.3l36.59,1.96c0,0,1.46,0.42,1.42,1.76c-0.04,1.34-1.33,27.27-1.33,27.27s-0.06,2.33-1.51,4.35
			c-1.45,2.02-12.96,20.99-35.17,20.99c-22.21,0-33.72-18.98-35.17-20.99c-1.45-2.02-1.51-4.35-1.51-4.35s-1.28-25.92-1.33-27.27
			c-0.04-1.34,1.42-1.76,1.42-1.76L534.52,113.3z"/>
		<path class="st13" d="M534.52,116.12L499.36,118c0.31,8.71,0.9,17.46,1.29,26.17c0.04,0.93,0.45,2.09,0.99,2.84
			c0.98,1.36,1.85,2.7,2.91,4.03c1.93,2.44,4.08,4.71,6.44,6.73c6.71,5.75,14.63,9.06,23.54,9.06c8.91,0,16.82-3.32,23.54-9.06
			c2.36-2.02,4.52-4.29,6.44-6.73c1.05-1.33,1.93-2.67,2.91-4.03c0.54-0.75,0.95-1.91,0.99-2.84c0.39-8.71,0.98-17.46,1.29-26.17
			L534.52,116.12z"/>
		<path class="st2" d="M499.88,129.31c0.18,3.4,0.37,6.81,0.54,10.21L532.86,127L499.88,129.31L499.88,129.31z M500.6,143.01
			l0.05,1.15c0.04,0.93,0.45,2.09,0.99,2.84c0.98,1.36,1.85,2.7,2.91,4.03c1.93,2.44,4.08,4.71,6.44,6.73
			c6.71,5.75,14.63,9.06,23.54,9.06c8.91,0,16.82-3.32,23.54-9.06c2.36-2.02,4.52-4.29,6.44-6.73c1.05-1.33,1.93-2.67,2.91-4.03
			c0.15-0.2,0.28-0.44,0.41-0.69c0,0-5.7,6.17-25.5,6.17C522.52,152.47,500.6,143.01,500.6,143.01L500.6,143.01z M568.51,141.73
			c0.12-2.49,0.25-4.99,0.39-7.49l-24.18-1.69L568.51,141.73z"/>
	</g>
	<g>
		<g>
			<path class="st14" d="M170.91,193.09c0,0-13.95,3.75-21.93,21.02c-7.98,17.26-27.41,71.76-32.27,87.05
				c-4.86,15.29,12.77,80.71,35.25,115.57h29.54c0,0-28.53-87.21-29.76-95.6c-1.23-8.38,27-57.21,27-57.21
				C186.53,239.46,186.06,215.03,170.91,193.09z"/>
			<path class="st1" d="M248.54,107.32L248.54,107.32c13.11,0,23.83,18.34,23.83,40.75v33.1c0,22.41-10.72,40.75-23.83,40.75l0,0
				c-13.11,0-23.83-18.34-23.83-40.75v-33.1C224.7,125.65,235.43,107.32,248.54,107.32z"/>
			<path class="st14" d="M326.93,193.09c0,0,13.95,3.75,21.93,21.02c7.98,17.26,27.41,71.76,32.27,87.05
				c4.86,15.29-12.77,80.71-35.25,115.57h-29.54c0,0,28.53-87.21,29.76-95.6c1.23-8.38-27-57.21-27-57.21
				C311.31,239.46,311.79,215.03,326.93,193.09z"/>
			<path class="st8" d="M254.78,190.93l-3.86,0.46l-2,1.37l-2-1.37l-3.86-0.46l-22.75-17.85l-49.4,20l-2.46,47.4
				c3.69,47.11,15.29,122.65,15.29,126.3c0,3.65-7.83,29.24-12.69,44.79h77.87h77.86c-4.85-15.56-12.69-41.14-12.69-44.79
				c0-3.65,11.6-79.19,15.29-126.3l-2.46-47.4l-49.4-20L254.78,190.93z"/>
			<polygon class="st10" points="253.86,203.36 254.92,209.03 265.7,349.47 248.54,385.96 231.37,349.47 242.14,209.03 
				243.21,203.36 248.54,206.81 			"/>
			<path class="st11" d="M253.86,203.36l1.06,5.67l10.77,140.44l-17.16,36.5c0,0,10.08-31.43,10.48-36.3
				c0.4-4.87-6.07-138.81-7.96-140.06c-1.9-1.25-5.68-1.13-5.68-1.13l2.42-2.15l0.75,0.48L253.86,203.36z"/>
			<path class="st2" d="M243.83,191.73l2.31-0.34c0,0,0.46,0.42,0.52,1.15c0.07,0.72,0.12,2.86,0.12,2.86l-1.77,0.55
				c0,0-3.5,0.09-3.47-0.04C241.58,195.77,243.83,191.73,243.83,191.73z"/>
			<path class="st2" d="M253.23,191.73l-2.31-0.34c0,0-0.46,0.42-0.52,1.15c-0.07,0.72-0.12,2.86-0.12,2.86l1.77,0.55
				c0,0,3.5,0.09,3.47-0.04C255.48,195.77,253.23,191.73,253.23,191.73z"/>
			<path class="st10" d="M242.14,209.03l-5.03-11.04c4.35-4.09,18.49-4.09,22.84,0l-5.03,11.04
				C251.38,208.09,245.69,208.09,242.14,209.03z"/>
			<path class="st11" d="M239.12,202.39l-2-4.4c1.57-1.47,4.4-2.41,7.58-2.83L239.12,202.39L239.12,202.39z M248.65,194.92
				c4.58,0.02,9.15,1.04,11.31,3.07l-5.03,11.04c-1.37-0.36-3.05-0.58-4.82-0.67c0.95-0.76,2.2-1.81,2.24-2.06
				c0.07-0.41-0.02-9.9-0.42-10.06L248.65,194.92z"/>
			<path class="st13" d="M272.36,165.65c0,0,2.06-0.31,2.76,0c0.71,0.31,3.12,8.73,4.61,10.83c0,0,1.35,1.73,0.35,4.62
				c-0.99,2.9-13.96,26.69-13.96,26.69s-0.92,1.26-2.41,0.03c-1.49-1.23-12.79-16.43-12.79-16.43l21.44-23.84V165.65z"/>
			<path class="st13" d="M224.7,165.17c0,0-2.06-0.31-2.76,0c-0.71,0.31-3.12,9.21-4.61,11.3c0,0-1.35,1.73-0.35,4.62
				c0.99,2.9,13.96,26.69,13.96,26.69s0.92,1.26,2.41,0.03c1.49-1.23,12.79-16.43,12.79-16.43l-21.44-24.31V165.17z"/>
			<g>
				<path class="st4" d="M291.8,100.54c0.32,0.05,0.64,0.1,0.95,0.17l0.01,0l0,0c5.79,1.25,10.15,6.37,10.22,12.54
					c0.08,7.17-5.66,13.06-12.83,13.14c-7.17,0.09-13.06-5.66-13.14-12.83c-0.05-4.17,1.87-7.9,4.89-10.31
					c-0.36,3.83,0.22,8.58,5.11,9.09l-0.09-7.49C286.89,101.81,289.72,100.44,291.8,100.54z"/>
				<path class="st4" d="M206.22,100.52c-0.32,0.04-0.64,0.09-0.95,0.16l-0.01,0v0c-5.8,1.17-10.23,6.22-10.4,12.39
					c-0.18,7.17,5.48,13.13,12.65,13.32c7.17,0.19,13.13-5.48,13.32-12.64c0.11-4.17-1.76-7.93-4.75-10.38
					c0.3,3.84-0.34,8.58-5.23,9.02l0.19-7.49C211.12,101.87,208.3,100.46,206.22,100.52z"/>
			</g>
			<path class="st5" d="M248.92,165.57c-24.25,0-44.47-29.91-44.47-53.53V80.67c0-24.46,20.01-44.46,44.46-44.46h0.01
				c24.45,0,44.46,20.01,44.46,44.46v30.71C293.39,137.26,275.74,165.57,248.92,165.57z"/>
			<g>
				<path class="st1" d="M279.45,110.88c-4.14,0.08-7.43,3.49-7.36,7.63c0.08,4.14,3.5,7.43,7.63,7.35
					c4.14-0.08,7.43-3.49,7.36-7.63C287,114.1,283.58,110.8,279.45,110.88z"/>
				<path class="st1" d="M218.12,112.07c-4.14,0.08-7.43,3.49-7.36,7.63c0.08,4.14,3.49,7.43,7.63,7.36
					c4.14-0.08,7.43-3.49,7.35-7.63C225.67,115.29,222.26,112,218.12,112.07z"/>
			</g>
			<g>
				<path class="st0" d="M234.15,90.25c0.94,0.43,1.35,1.53,0.93,2.47c-0.42,0.94-1.53,1.35-2.47,0.93
					c-0.01-0.01-5.63-2.66-10.99,0.71c-0.87,0.55-2.03,0.29-2.58-0.59c-0.55-0.87-0.29-2.03,0.59-2.58
					C226.71,86.74,234.13,90.25,234.15,90.25z"/>
				<path class="st0" d="M278.13,91.08c0.9,0.5,1.22,1.63,0.72,2.53c-0.5,0.9-1.63,1.22-2.53,0.72c-0.02-0.01-5.4-3.11-11.02-0.19
					c-0.91,0.48-2.04,0.12-2.52-0.79c-0.48-0.92-0.12-2.05,0.8-2.52C270.99,86.97,278.11,91.07,278.13,91.08z"/>
			</g>
			<path class="st6" d="M250.12,113.05c0.83,2.25,2.28,6.32,2.15,7.01c-0.17,0.96-5.1,1.84-6.39,0.58
				c-0.86-0.84,0.21-4.51,1.14-6.98C248.29,110.28,249,110.02,250.12,113.05z"/>
			<g>
				<path class="st7" d="M258.26,130.82c0,5.16-4.19,9.34-9.34,9.34c-5.16,0-9.34-4.18-9.34-9.34c0-0.95,0.77-1.72,1.72-1.72h15.25
					C257.49,129.1,258.26,129.87,258.26,130.82z"/>
				<path class="st8" d="M242.24,129.1h13.36v1.58c0,0.82-0.67,1.5-1.5,1.5h-10.37c-0.82,0-1.5-0.67-1.5-1.5V129.1z"/>
				<path class="st9" d="M255.69,137.26c-1.7,1.79-4.11,2.91-6.77,2.91c-2.66,0-5.07-1.12-6.77-2.91c1.7-1.79,4.11-2.91,6.77-2.91
					C251.59,134.35,253.99,135.47,255.69,137.26z"/>
			</g>
			<g>
				<path class="st0" d="M227.17,109.83c2.95,0,5.35-2.41,5.35-5.36c0-2.95-2.41-5.35-5.35-5.35c-2.95,0-5.36,2.41-5.36,5.35
					C221.82,107.42,224.22,109.83,227.17,109.83z"/>
				<path class="st0" d="M270.67,109.83c2.95,0,5.36-2.41,5.36-5.36c0-2.95-2.41-5.35-5.36-5.35c-2.95,0-5.36,2.41-5.36,5.35
					C265.31,107.42,267.72,109.83,270.67,109.83z"/>
			</g>
			<path class="st2" d="M283.45,119.65c-0.11,0.36-0.48,0.56-0.84,0.45c-0.36-0.11-0.56-0.48-0.45-0.84
				c0.01-0.04,3.42-11.59,9.27-16.39l0.35,1.43C286.61,108.97,283.46,119.61,283.45,119.65z"/>
			<path class="st2" d="M281.81,146.39c-0.37,0.04-0.7-0.23-0.74-0.6c-0.04-0.37,0.23-0.71,0.6-0.75l0.24-0.03
				c4.03-0.5,7.33-4.22,9.55-8.72c1.71-3.48,2.77-7.4,3.03-10.7c0.48-0.17,0.94-0.38,1.38-0.6c-0.17,3.61-1.3,8.03-3.2,11.9
				c-2.4,4.87-6.04,8.9-10.59,9.47L281.81,146.39z"/>
			<path class="st2" d="M214.39,119.65c0.11,0.36,0.48,0.56,0.84,0.45c0.36-0.11,0.56-0.48,0.46-0.84
				c-0.01-0.04-3.42-11.59-9.27-16.39l-0.35,1.43C211.24,108.97,214.38,119.61,214.39,119.65z"/>
			<path class="st2" d="M216.04,146.39c0.37,0.04,0.7-0.23,0.75-0.6c0.04-0.37-0.23-0.71-0.6-0.75l-0.24-0.03
				c-4.03-0.5-7.33-4.22-9.55-8.72c-1.71-3.48-2.77-7.4-3.03-10.7c-0.47-0.17-0.94-0.38-1.39-0.6c0.17,3.61,1.3,8.03,3.2,11.9
				c2.4,4.87,6.04,8.9,10.59,9.47L216.04,146.39z"/>
			<g>
				<path class="st8" d="M248.92,114.48l34.63,1.85c0,0,1.38,0.4,1.34,1.67c-0.04,1.27-1.25,25.81-1.25,25.81s-0.06,2.21-1.43,4.12
					c-1.37,1.91-12.27,19.87-33.29,19.87c-21.02,0-31.92-17.96-33.29-19.87c-1.37-1.91-1.43-4.12-1.43-4.12s-1.21-24.54-1.25-25.81
					c-0.04-1.27,1.34-1.67,1.34-1.67L248.92,114.48z"/>
				<path class="st13" d="M248.92,117.14l-33.28,1.78c0.29,8.24,0.85,16.53,1.22,24.77c0.04,0.88,0.43,1.98,0.93,2.68
					c0.93,1.29,1.76,2.55,2.75,3.81c1.82,2.31,3.86,4.46,6.1,6.37c6.35,5.44,13.84,8.58,22.28,8.58c8.44,0,15.93-3.14,22.28-8.58
					c2.23-1.91,4.27-4.06,6.1-6.37c1-1.26,1.82-2.52,2.75-3.81c0.51-0.71,0.89-1.8,0.93-2.68c0.37-8.24,0.93-16.53,1.22-24.77
					L248.92,117.14z"/>
				<path class="st2" d="M216.13,129.63c0.17,3.22,0.35,6.45,0.52,9.66l30.7-11.84L216.13,129.63L216.13,129.63z M216.81,142.6
					l0.05,1.09c0.04,0.88,0.43,1.98,0.93,2.68c0.93,1.29,1.76,2.55,2.75,3.81c1.82,2.31,3.86,4.46,6.1,6.37
					c6.35,5.44,13.84,8.58,22.28,8.58c8.44,0,15.93-3.14,22.28-8.58c2.23-1.91,4.27-4.06,6.1-6.37c1-1.26,1.82-2.52,2.75-3.81
					c0.14-0.19,0.27-0.42,0.38-0.65c0,0-5.4,5.84-24.14,5.84C237.56,151.56,216.81,142.6,216.81,142.6L216.81,142.6z M281.09,141.39
					c0.11-2.36,0.24-4.73,0.37-7.09l-22.89-1.6L281.09,141.39z"/>
			</g>
			<g>
				<path class="st12" d="M248.92,35.25c10.72,0,21.44,3.15,30.4,9.44c13.84,9.72,16.81,23.9,16.81,34.44c0,10.55,0,22.61,0,22.61
					s-2.75,3.55-2.75,12.56c-3.96,0-4.36-4.24-4.36-8.43c0-4.19,0-7.5,0-7.5c-8.7,0-9.75-23.3-8.12-26.09
					c1.32-2.27,5.44-8.27,6.88-10.02c0,0,0.6-0.81,0-1.15c-0.6-0.35-1.07,0.23-3.55,2.75c-2.47,2.51-5.48,5.15-6.92,5.89
					c-2.16,1.11-9.27-0.35-12.73-0.35h-15.65h-15.65c-3.46,0-10.57,1.46-12.73,0.35c-1.44-0.74-4.45-3.38-6.92-5.89
					c-2.47-2.51-2.95-3.1-3.55-2.75c-0.6,0.35,0,1.15,0,1.15c1.44,1.75,5.56,7.75,6.88,10.02c1.62,2.79,0.58,26.09-8.12,26.09
					c0,0,0,3.31,0,7.5c0,4.19-0.41,8.43-4.36,8.43c0-9.02-2.75-12.56-2.75-12.56s0-12.06,0-22.61c0-10.55,2.96-24.72,16.81-34.44
					C227.48,38.4,238.2,35.25,248.92,35.25z"/>
				<path class="st0" d="M210.07,61.12c0.6-0.35,1.08,0.23,3.55,2.75c2.47,2.51,5.48,5.15,6.92,5.89c2.16,1.11,9.27-0.35,12.73-0.35
					h15.65h15.65c3.46,0,10.57,1.46,12.73,0.35c1.44-0.74,4.45-3.38,6.92-5.89c2.47-2.51,2.95-3.1,3.55-2.75c0.6,0.35,0,1.15,0,1.15
					l0.81-0.95l2.72-3.19c-2.56-4.85-6.38-9.51-11.98-13.45c-8.96-6.29-19.68-9.44-30.4-9.44c-10.72,0-21.44,3.15-30.4,9.44
					c-5.6,3.93-9.42,8.59-11.98,13.45l2.72,3.19l0.81,0.95C210.07,62.27,209.47,61.47,210.07,61.12z"/>
			</g>
		</g>
		<polygon class="st0" points="326.79,411.58 198.12,411.58 198.12,498.9 318.63,498.9 		"/>
	</g>
	<path class="st0" d="M95.37,235.62c0,0,1.22,20.16-6.38,38.31c0,0-1.37,4.54,1.67,7.23c3.04,2.69,24.31,10.08,51.5,10.08
		c27.19,0,48.46-7.39,51.5-10.08c3.04-2.69,1.67-7.23,1.67-7.23c-7.59-18.15-6.38-38.31-6.38-38.31L142.16,231L95.37,235.62z"/>
	<path class="st5" d="M83.21,498.9c4.24-22.24,1.21-42.66-3.09-72.98c-8.17-15.87-14.43-44.72-10.1-65.4
		c4.33-20.68,4.81-50.54,4.81-50.54s40.75-8.97,44.36-10.77c3.61-1.8,3.94-9.38,3.94-9.38l19.03-4.09l19.03,4.09
		c0,0,0.33,7.57,3.93,9.38c3.61,1.8,44.36,10.77,44.36,10.77s0.49,29.86,4.81,50.54c4.33,20.68-1.92,49.53-10.1,65.4
		c-4.3,30.33-7.32,50.74-3.09,72.98H83.21z"/>
	<path class="st5" d="M142.16,241.86L142.16,241.86c10.48,0,19.05,8.57,19.05,19.05v36.46c0,10.48-8.57,19.05-19.05,19.05l0,0
		c-10.47,0-19.05-8.57-19.05-19.05V260.9C123.11,250.43,131.68,241.86,142.16,241.86z"/>
	<g>
		<path class="st1" d="M183.7,225.08c0.3,0.04,0.6,0.09,0.89,0.16l0.01,0l0,0c5.4,1.17,9.48,5.94,9.55,11.7
			c0.08,6.69-5.28,12.19-11.98,12.27c-6.69,0.08-12.19-5.28-12.27-11.97c-0.05-3.89,1.74-7.38,4.57-9.63
			c-0.33,3.58,0.2,8.01,4.77,8.49l-0.08-6.99C179.11,226.27,181.76,224.99,183.7,225.08z"/>
		<path class="st1" d="M100.79,224.5c-0.3,0.04-0.6,0.09-0.89,0.15l-0.01,0l0,0c-5.42,1.09-9.56,5.81-9.71,11.57
			c-0.17,6.69,5.12,12.26,11.81,12.43c6.69,0.17,12.26-5.11,12.43-11.8c0.1-3.89-1.64-7.4-4.43-9.69c0.28,3.58-0.31,8.01-4.89,8.42
			l0.18-6.99C105.36,225.76,102.73,224.44,100.79,224.5z"/>
	</g>
	<path class="st5" d="M142.16,285.79c-22.63,0-41.51-27.93-41.51-49.97v-29.29c0-22.83,18.68-41.51,41.5-41.51h0.01
		c22.82,0,41.51,18.68,41.51,41.51v28.67C183.67,259.36,167.2,285.79,142.16,285.79z"/>
	<path class="st1" d="M105.16,187.78c2.4-4.69,5.66-8.88,9.58-12.34l47.18,6.42c0,0,16.99,11.77,21.58,20.91
		c0.11,1.24,0.17,2.49,0.17,3.76v3.13c-0.97,1.25-2.72,2.24-5.48,2.87c-21.07,4.8-35.64-11.77-35.64-11.77s13.79,0.46-4.8,6.35
		c-18.59,5.89-31.14-11-31.14-11L105.16,187.78z"/>
	<g>
		<path class="st1" d="M172.17,243.68c-3.78,0.07-6.79,3.19-6.72,6.97c0.07,3.78,3.19,6.79,6.97,6.72c3.78-0.07,6.79-3.19,6.72-6.98
			C179.08,246.62,175.95,243.61,172.17,243.68z"/>
		<path class="st1" d="M111.89,244.77c-3.78,0.07-6.79,3.19-6.72,6.98c0.07,3.78,3.19,6.79,6.97,6.72c3.78-0.07,6.79-3.19,6.72-6.97
			C118.8,247.71,115.67,244.7,111.89,244.77z"/>
	</g>
	<path class="st0" d="M129.82,214.89c0.87,0.4,1.26,1.43,0.86,2.3c-0.4,0.87-1.43,1.26-2.3,0.87c-0.02-0.01-5.26-2.49-10.27,0.66
		c-0.81,0.51-1.89,0.27-2.41-0.55c-0.51-0.81-0.27-1.89,0.55-2.41C122.87,211.6,129.8,214.88,129.82,214.89z"/>
	<path class="st0" d="M170.87,215.66c0.84,0.47,1.14,1.53,0.68,2.36c-0.47,0.84-1.53,1.14-2.37,0.68
		c-0.01-0.01-5.04-2.91-10.28-0.18c-0.85,0.44-1.91,0.11-2.35-0.74c-0.44-0.85-0.11-1.91,0.75-2.35
		C164.21,211.82,170.85,215.65,170.87,215.66z"/>
	<path class="st8" d="M131.88,255.97c-0.06,6.79,5.39,12.34,12.18,12.4c6.79,0.06,12.34-5.39,12.4-12.18l-0.02,0
		c0.01-1.17-0.93-2.13-2.1-2.14l-20.29-0.18c-1.17-0.01-2.13,0.94-2.14,2.1H131.88z"/>
	<path class="st8" d="M136.37,265.57c2.09,1.72,4.77,2.76,7.69,2.79c2.38,0.02,4.61-0.64,6.51-1.8c-0.92-2.53-3.66-4.44-6.98-4.59
		C140.41,261.82,137.62,263.32,136.37,265.57z"/>
	<path class="st8" d="M153.64,254.04l-19.07-0.17c-0.32,2.11,0.63,4.25,2.05,4.72c1.72,0.58,15.52,0.35,16.51-0.73
		C153.61,257.34,153.69,255.65,153.64,254.04z"/>
	<path class="st15" d="M144.98,236.71c0.89,2.53,2.44,7.1,2.31,7.82c-0.19,1-5.47,1.26-6.86-0.27c-0.92-1.02,0.22-4.81,1.22-7.34
		C143.03,233.49,143.79,233.31,144.98,236.71z"/>
	<path class="st10" d="M187.21,304.93l-8.18,110.39l16.82,0.44c0,0,3.28,53.38,9.4,83.14H79.59c6.12-29.76,9.4-83.14,9.4-83.14
		l16.81-0.44l-8.18-110.39C121.59,344.16,163.25,344.16,187.21,304.93z"/>
	<g>
		<path class="st16" d="M125.77,498.9H79.59c6.12-29.76,9.4-83.14,9.4-83.14l16.81-0.44l-6.58-88.85c5.7-0.96,10.81-1.74,15.1-2.34
			c4.4,3.42,9.02,5.97,13.75,7.68c-0.95,158.12-2.33,166.39-2.33,166.39L125.77,498.9z"/>
		<path class="st16" d="M185.62,326.46l-6.58,88.85l16.82,0.44c0,0,3.28,53.38,9.4,83.14h-46.19l0.03-0.7c0,0-1.38-8.27-2.33-166.39
			c4.74-1.7,9.36-4.26,13.75-7.68C174.81,324.73,179.92,325.5,185.62,326.46z"/>
	</g>
	<path class="st8" d="M162.09,318.38c0,0-2.09-2.56-2.79-4.42c-0.7-1.86-0.46-3.14,1.63-5.23c2.09-2.09,9.99-9.41,11.5-10.81
		c1.51-1.39,3.08-0.75,3.89,0.06c0.81,0.81,3.87,4.51,3.87,4.51S174.93,312.39,162.09,318.38z"/>
	<path class="st17" d="M162.09,318.38c0,0-0.87,2.85-0.87,6.92c0,4.07,1.39,60.66,2.32,89.01c0.93,28.35,1.4,74.6,1.4,78.09
		c0,3.49,1.63,4.65,4.41,4.18c2.79-0.46,36.95-7.9,48.57-10.69c0,0,4.42-2.56,4.42-7.21c0-4.65-5.35-87.85-5.35-87.85
		s-10.6-55.69,7.02-71.77c0,0-1.67-2.95-5.16-5.62c-3.49-2.67-38.66-10.95-38.66-10.95L162.09,318.38z"/>
	<path class="st8" d="M122.75,318.38c0,0,2.09-2.56,2.79-4.42c0.7-1.86,2.47-4.24,0.38-6.33c-2.09-2.09-12-8.31-13.51-9.7
		c-1.51-1.39-3.08-0.75-3.89,0.06c-0.81,0.81-3.87,4.51-3.87,4.51S109.91,312.39,122.75,318.38z"/>
	<path class="st17" d="M122.75,318.38c0,0,0.87,2.85,0.87,6.92c0,4.07-1.4,60.66-2.32,89.01c-0.93,28.35-1.39,74.6-1.39,78.09
		c0,3.49-1.63,4.65-4.42,4.18c-2.79-0.46-36.95-7.9-48.57-10.69c0,0-4.42-2.56-4.42-7.21c0-4.65,5.35-87.85,5.35-87.85
		s10.6-55.69-7.02-71.77c0,0,1.67-2.95,5.16-5.62c3.49-2.67,38.66-10.95,38.66-10.95L122.75,318.38z"/>
	<path class="st1" d="M161.2,289.17v-9.1c-5.47,3.55-11.79,5.66-18.78,5.71c-0.09,0-0.18,0-0.27,0c-0.09,0-0.18,0-0.27,0
		c-6.73-0.07-13.13-2.6-18.78-6.7v11c-0.1,1.37-0.72,7.51-3.92,9.11c-0.56,0.28-1.99,0.73-4.03,1.29c0.39,0.36,2.47,2.53,2.89,2.92
		L161.2,289.17z"/>
	<path class="st0" d="M100.65,234.38c0,0,9.41-3.72,5.63-14.72c0,0,10.54-6.97,8.06-25.88c1.22,4.59,15.48,21.1,31.61,16.11
		c10.03-3.1,4.8-10.85,4.8-10.85s8.13,10.07,22.85,8.75c0,0-3.77,12.08,6.51,14.8c0,0-1.17,11.15,3.56,12.08
		c0,0,0.98-9.87,5.25-7.57c0,0,6.29-30.39,3.51-46.82c-2.79-16.42-45.86-29.75-58.26-29.75c-12.4,0-32.85,14.56-34.09,25.41
		c0,0-13.63,3.1-14.56,10.54c-0.93,7.44,7.96,41.71,7.96,41.71S100.65,225.86,100.65,234.38z"/>
	<path class="st0" d="M120.41,228.39c-1.23,0-2.36,0.41-3.26,1.11c-0.29-0.08-0.74-0.29-1-0.79c-0.16-0.3-0.53-0.42-0.83-0.27
		c-0.3,0.16-0.43,0.53-0.27,0.83c0.29,0.58,0.74,0.94,1.16,1.16l-0.04,0.06c-0.5-0.14-1.05-0.41-1.5-0.97
		c-0.22-0.26-0.61-0.31-0.87-0.09c-0.27,0.21-0.31,0.6-0.09,0.87c0.54,0.67,1.2,1.06,1.82,1.27l-0.01,0.01
		c-0.58-0.04-1.23-0.2-1.86-0.61c-0.29-0.18-0.67-0.1-0.86,0.19c-0.18,0.29-0.1,0.67,0.19,0.86c0.64,0.41,1.3,0.64,1.92,0.74
		l0.24,0.03c-0.06,0.31-0.09,0.63-0.09,0.96c0,2.96,2.4,5.36,5.36,5.36c2.96,0,5.35-2.4,5.35-5.36
		C125.77,230.79,123.37,228.39,120.41,228.39L120.41,228.39z M163.91,228.39c-2.96,0-5.36,2.4-5.36,5.36c0,2.96,2.4,5.36,5.36,5.36
		c2.96,0,5.35-2.4,5.35-5.36c0-0.33-0.03-0.66-0.09-0.97l0.16-0.02c0.62-0.1,1.27-0.32,1.92-0.74c0.29-0.18,0.37-0.57,0.19-0.86
		c-0.18-0.29-0.57-0.37-0.86-0.19c-0.6,0.39-1.22,0.55-1.78,0.6l-0.01-0.03c0.6-0.22,1.23-0.6,1.75-1.25
		c0.21-0.27,0.17-0.66-0.09-0.87c-0.27-0.21-0.66-0.17-0.87,0.09c-0.43,0.53-0.96,0.81-1.43,0.95l-0.06-0.07
		c0.4-0.22,0.82-0.57,1.1-1.13c0.15-0.3,0.04-0.68-0.27-0.83c-0.3-0.16-0.68-0.03-0.83,0.27c-0.24,0.47-0.65,0.68-0.94,0.77
		C166.24,228.8,165.12,228.39,163.91,228.39z"/>
	<g>
		<path class="st2" d="M173.45,242.95c-0.1,0.36-0.48,0.56-0.84,0.46c-0.36-0.11-0.56-0.48-0.45-0.84
			c0.01-0.04,9.82-16.54,15.02-15.72l-1.47,1.14C180.54,232.64,173.46,242.91,173.45,242.95z"/>
		<path class="st2" d="M111.12,242.72c0.11,0.36,0.48,0.56,0.84,0.46c0.36-0.11,0.56-0.48,0.46-0.84
			c-0.01-0.04-9.93-14.99-15.13-14.17l0.8,0.34l0.64,0.43C103.9,233.59,111.11,242.68,111.12,242.72z"/>
		<path class="st2" d="M112.69,268.07c0.37,0.04,0.71-0.23,0.75-0.6c0.04-0.37-0.23-0.71-0.6-0.75l-0.24-0.02
			c-7.58-0.95-14.19-12.2-14.72-18.9c-0.48-0.27-0.94-0.55-1.4-0.87c0.35,7.55,7.45,20.05,15.96,21.11L112.69,268.07z"/>
		<path class="st2" d="M171.5,268.07c-0.37,0.04-0.7-0.23-0.75-0.6c-0.04-0.37,0.23-0.71,0.6-0.75l0.24-0.02
			c7.58-0.95,15.58-12.2,16.1-18.9c0.48-0.27,0.94-0.55,1.41-0.87c-0.35,7.55-8.84,20.05-17.34,21.11L171.5,268.07z"/>
		<g>
			<path class="st8" d="M142.15,239.74l30.79,1.64c0,0,1.23,0.35,1.19,1.49c-0.04,1.13-1.12,22.95-1.12,22.95s-0.05,1.96-1.27,3.66
				c-1.22,1.7-10.91,17.67-29.6,17.67c-18.68,0-28.38-15.97-29.59-17.67c-1.22-1.7-1.27-3.66-1.27-3.66s-1.08-21.81-1.12-22.95
				c-0.04-1.13,1.19-1.49,1.19-1.49L142.15,239.74z"/>
			<path class="st13" d="M142.16,242.11l-29.59,1.58c0.26,7.33,0.76,14.69,1.08,22.02c0.04,0.78,0.38,1.76,0.83,2.38
				c0.82,1.15,1.56,2.27,2.45,3.39c1.62,2.05,3.43,3.96,5.42,5.66c5.65,4.84,12.31,7.63,19.81,7.63c7.5,0,14.16-2.79,19.81-7.63
				c1.98-1.7,3.8-3.61,5.42-5.66c0.89-1.12,1.62-2.24,2.45-3.39c0.45-0.63,0.8-1.6,0.83-2.38c0.33-7.33,0.82-14.69,1.08-22.02
				L142.16,242.11z"/>
			<path class="st2" d="M113.01,253.21c0.15,2.87,0.31,5.73,0.46,8.59l27.29-10.53L113.01,253.21L113.01,253.21z M113.61,264.74
				l0.04,0.97c0.04,0.78,0.38,1.76,0.83,2.38c0.82,1.15,1.56,2.27,2.45,3.39c1.62,2.05,3.43,3.96,5.42,5.66
				c5.65,4.84,12.31,7.63,19.81,7.63c7.5,0,14.16-2.79,19.81-7.63c1.98-1.7,3.8-3.61,5.42-5.66c0.89-1.12,1.62-2.24,2.45-3.39
				c0.13-0.17,0.24-0.37,0.34-0.58c0,0-4.8,5.19-21.46,5.19C132.06,272.7,113.61,264.74,113.61,264.74L113.61,264.74z
				 M170.76,263.66c0.1-2.1,0.21-4.2,0.33-6.3l-20.35-1.42L170.76,263.66z"/>
		</g>
	</g>
	<path class="st18" d="M65.98,313.44c0,0-9.7,3.24-14.32,12.48c-4.62,9.24-37.13,84.26-38.67,92.28
		c-1.48,7.72-4.11,29.78,10.03,80.7h39.43c-1.52-6.52-10.21-61.01-11.57-62.52l17.13-46.55C68.02,389.83,88.1,333.71,65.98,313.44z"
		/>
	<path class="st18" d="M218.86,313.44c0,0,9.7,3.24,14.32,12.48c4.62,9.24,37.12,84.26,38.67,92.28c1.48,7.72,4.11,29.78-10.03,80.7
		h-39.43c1.52-6.52,10.21-61.01,11.57-62.52l-17.13-46.55C216.82,389.83,196.74,333.71,218.86,313.44z"/>
	<path class="st10" d="M567.92,236.58l-7.28,3.08c0,0,1.01,31.8-6.39,53.7c-7.4,21.9-1.51,40.41,10.42,35.97
		c0,0,0.7,13.34,10.59,16.42c9.89,3.08,22.19,5.47,22.19,5.47l33.28,2.09c0,0,31.6,9.9,33.95-32.07c0,0,10.76-0.52,10.93-15.12
		c0.17-14.6-14.62-38.32-14.62-68.56C660.99,207.34,567.92,236.58,567.92,236.58L567.92,236.58z M563.45,211.55l-2.34-4.15
		c0,0-4.43-24.66-4.13-33.29c0.31-8.63,8.01-19.41,29.89-29.27c21.88-9.86,39.13,10.48,44.06,14.79c0,0,23.42-0.92,29.27,5.55
		c5.85,6.47,1.36,44.67,1.36,44.67L563.45,211.55z"/>
	<path class="st5" d="M552.37,498.65c4.24-22.24,1.21-42.66-3.09-72.98c-8.18-15.87-14.43-44.73-10.1-65.41
		c4.33-20.68,3.18-44.04,3.18-44.04s42.39-15.47,46-17.27c3.61-1.8,3.93-9.38,3.93-9.38l19.03-4.09l19.03,4.09
		c0,0,0.33,7.57,3.94,9.38c3.61,1.8,44.36,10.78,44.36,10.78s0.49,29.86,4.81,50.54c4.33,20.68-1.92,49.53-10.1,65.41
		c-4.3,30.32-7.32,50.74-3.09,72.98H552.37z"/>
	<path class="st5" d="M611.33,241.61L611.33,241.61c10.48,0,19.05,8.57,19.05,19.05v36.46c0,10.48-8.57,19.05-19.05,19.05l0,0
		c-10.48,0-19.05-8.57-19.05-19.05v-36.46C592.28,250.18,600.85,241.61,611.33,241.61z"/>
	<g>
		<path class="st1" d="M652.87,224.84c0.3,0.04,0.6,0.09,0.89,0.16l0.01,0l0,0c5.4,1.17,9.47,5.94,9.54,11.7
			c0.08,6.69-5.28,12.19-11.98,12.27c-6.69,0.08-12.19-5.28-12.27-11.98c-0.05-3.89,1.75-7.38,4.57-9.63
			c-0.33,3.58,0.2,8.01,4.77,8.49l-0.08-6.99C648.28,226.03,650.93,224.74,652.87,224.84z"/>
		<path class="st1" d="M569.95,224.26c-0.3,0.04-0.6,0.09-0.89,0.14l-0.01,0l0,0c-5.42,1.1-9.56,5.81-9.71,11.57
			c-0.17,6.69,5.12,12.26,11.81,12.43c6.69,0.17,12.26-5.11,12.44-11.8c0.1-3.89-1.64-7.4-4.43-9.69c0.28,3.58-0.32,8.01-4.89,8.42
			l0.18-6.99C574.52,225.51,571.9,224.19,569.95,224.26z"/>
	</g>
	<path class="st5" d="M611.33,285.55c-22.63,0-41.51-27.93-41.51-49.97v-29.29c0-22.83,18.68-41.51,41.5-41.51h0.01
		c22.82,0,41.51,18.68,41.51,41.51v28.67C652.84,259.12,636.37,285.55,611.33,285.55z"/>
	<path class="st1" d="M635.85,191.37c0,0-7.02-3.14-15.1,1.54c-8.08,4.69-20.18,23.72-42.67,21.26
		c-22.49-2.46,29.42-23.88,29.42-23.88s26.19-13.1,27.58-12.32C636.47,178.73,635.85,191.37,635.85,191.37z"/>
	<g>
		<path class="st1" d="M641.34,243.44c-3.78,0.07-6.79,3.19-6.72,6.97c0.07,3.78,3.19,6.79,6.97,6.72c3.78-0.07,6.79-3.19,6.72-6.97
			C648.24,246.38,645.12,243.36,641.34,243.44z"/>
		<path class="st1" d="M581.06,244.53c-3.78,0.07-6.79,3.19-6.72,6.97c0.07,3.78,3.19,6.79,6.97,6.72c3.78-0.07,6.79-3.19,6.72-6.97
			C587.96,247.46,584.84,244.46,581.06,244.53z"/>
	</g>
	<path class="st0" d="M598.99,214.64c0.87,0.4,1.26,1.43,0.86,2.3c-0.4,0.87-1.43,1.26-2.3,0.86c-0.01-0.01-5.26-2.49-10.26,0.66
		c-0.82,0.51-1.89,0.27-2.41-0.55c-0.51-0.82-0.27-1.89,0.55-2.41C592.04,211.36,598.97,214.64,598.99,214.64z"/>
	<path class="st0" d="M640.04,215.42c0.84,0.47,1.14,1.53,0.68,2.36c-0.47,0.84-1.53,1.14-2.37,0.67
		c-0.01-0.01-5.04-2.91-10.28-0.18c-0.85,0.44-1.91,0.11-2.35-0.74c-0.44-0.85-0.11-1.91,0.74-2.35
		C633.38,211.58,640.02,215.41,640.04,215.42z"/>
	<path class="st8" d="M601.05,255.72c-0.06,6.79,5.39,12.34,12.18,12.4c6.79,0.06,12.34-5.39,12.4-12.18l-0.02,0
		c0.01-1.17-0.93-2.13-2.1-2.14l-20.29-0.18c-1.17-0.01-2.13,0.94-2.14,2.1H601.05z"/>
	<path class="st8" d="M605.54,265.33c2.09,1.72,4.77,2.76,7.69,2.79c2.38,0.02,4.61-0.64,6.51-1.8c-0.92-2.53-3.66-4.44-6.98-4.6
		C609.58,261.58,606.79,263.08,605.54,265.33z"/>
	<path class="st8" d="M622.81,253.8l-19.07-0.17c-0.32,2.11,0.64,4.25,2.05,4.72c1.72,0.58,15.52,0.35,16.51-0.73
		C622.78,257.09,622.86,255.4,622.81,253.8z"/>
	<path class="st15" d="M614.15,236.47c0.89,2.53,2.44,7.11,2.31,7.82c-0.19,1-5.47,1.26-6.86-0.26c-0.93-1.02,0.22-4.81,1.22-7.34
		C612.19,233.24,612.95,233.06,614.15,236.47z"/>
	<path class="st10" d="M656.38,304.68l-8.18,110.39l16.82,0.44c0,0,3.28,53.38,9.4,83.14H548.76c6.12-29.76,9.4-83.14,9.4-83.14
		l16.81-0.44l-8.18-110.39C590.76,343.92,632.42,343.92,656.38,304.68z"/>
	<path class="st8" d="M631.26,318.14c0,0-2.09-2.56-2.79-4.42c-0.7-1.86-0.46-3.14,1.63-5.23c2.09-2.09,9.99-9.41,11.5-10.81
		c1.51-1.39,3.08-0.75,3.89,0.06c0.81,0.81,3.87,4.51,3.87,4.51S644.1,312.15,631.26,318.14z"/>
	<path class="st8" d="M631.26,318.14c-0.25,0.84-17.41,81.7-20.32,100.44c-0.27,1.74-5.96,33.13-5.96,33.69
		c0,0.8,9.38,25.11,17.49,46.63h72.05c-4.54-24.87-12.39-66.25-12.43-67.62c-0.11-2.98,4.08-40.68,4.08-40.68
		s-10.6-55.69,7.02-71.77c0,0-1.67-2.95-5.16-5.62c-3.49-2.67-38.66-10.95-38.66-10.95L631.26,318.14z"/>
	<path class="st19" d="M613.94,402.11c-1.37,7.08-2.44,12.9-3,16.47c-0.27,1.74-5.96,33.13-5.96,33.69c0,0.8,9.38,25.11,17.49,46.63
		h22.04l-26.79-74.85l14.6-28.45l-9.36-0.82C622.96,394.78,619.11,397.83,613.94,402.11z"/>
	<path class="st3" d="M624.2,351.53c-6.01,28.85-13.67,66.53-13.67,70.54l37.56-45.62l-8.63-32.97
		C639.46,343.48,632.55,347.04,624.2,351.53z"/>
	<path class="st1" d="M592.34,298.7l28.36-11.2l9.66-3.82v-3.86c-5.47,3.55-11.79,5.66-18.78,5.72c-0.09,0-0.18,0-0.27,0
		c-0.09,0-0.18,0-0.27,0c-6.73-0.07-13.13-2.6-18.78-6.7v11c-0.1,1.37-0.72,7.51-3.92,9.1c-0.56,0.28-1.99,0.73-4.03,1.29
		c0.39,0.36,0.8,0.74,1.23,1.14L592.34,298.7z"/>
	<path class="st0" d="M589.58,225.77c-1.23,0-2.36,0.41-3.26,1.11c-0.29-0.08-0.74-0.29-1-0.79c-0.16-0.3-0.53-0.42-0.83-0.27
		c-0.3,0.16-0.43,0.53-0.27,0.84c0.29,0.58,0.74,0.93,1.16,1.16l-0.04,0.06c-0.5-0.14-1.05-0.41-1.5-0.97
		c-0.21-0.26-0.61-0.31-0.87-0.09c-0.26,0.21-0.31,0.6-0.09,0.87c0.54,0.67,1.2,1.06,1.82,1.27l-0.01,0.01
		c-0.58-0.04-1.23-0.2-1.86-0.6c-0.29-0.18-0.67-0.1-0.85,0.19c-0.18,0.29-0.1,0.67,0.19,0.86c0.64,0.41,1.3,0.64,1.92,0.73
		l0.24,0.04c-0.06,0.31-0.09,0.63-0.09,0.96c0,2.96,2.4,5.36,5.36,5.36c2.96,0,5.36-2.4,5.36-5.36
		C594.93,228.17,592.54,225.77,589.58,225.77L589.58,225.77z M633.07,225.77c-2.96,0-5.36,2.4-5.36,5.36c0,2.96,2.4,5.36,5.36,5.36
		c2.96,0,5.35-2.4,5.35-5.36c0-0.33-0.03-0.66-0.09-0.97l0.16-0.02c0.62-0.1,1.28-0.32,1.92-0.73c0.29-0.18,0.37-0.57,0.19-0.86
		c-0.18-0.29-0.57-0.37-0.86-0.19c-0.6,0.39-1.22,0.55-1.78,0.6l-0.01-0.03c0.6-0.22,1.23-0.6,1.75-1.25
		c0.21-0.27,0.17-0.66-0.09-0.87c-0.26-0.21-0.66-0.17-0.87,0.09c-0.43,0.53-0.96,0.81-1.43,0.95l-0.06-0.07
		c0.4-0.22,0.82-0.58,1.1-1.13c0.15-0.31,0.04-0.68-0.27-0.84c-0.3-0.15-0.68-0.03-0.83,0.27c-0.24,0.47-0.65,0.68-0.94,0.77
		C635.41,226.17,634.29,225.77,633.07,225.77z"/>
	<g>
		<path class="st2" d="M642.62,242.71c-0.11,0.36-0.48,0.56-0.84,0.45c-0.36-0.1-0.56-0.48-0.45-0.84
			c0.01-0.04,9.82-16.54,15.02-15.72l-1.47,1.14C649.71,232.4,642.63,242.67,642.62,242.71z"/>
		<path class="st2" d="M580.29,242.48c0.11,0.36,0.48,0.56,0.84,0.46c0.36-0.11,0.56-0.48,0.46-0.84
			c-0.01-0.04-9.93-14.99-15.13-14.17l0.8,0.34l0.64,0.43C573.06,233.35,580.28,242.44,580.29,242.48z"/>
		<path class="st2" d="M581.86,267.83c0.37,0.04,0.71-0.23,0.75-0.6c0.04-0.37-0.23-0.71-0.6-0.75l-0.24-0.03
			c-7.58-0.95-14.19-12.2-14.72-18.9c-0.48-0.27-0.94-0.55-1.4-0.87c0.35,7.55,7.45,20.05,15.96,21.11L581.86,267.83z"/>
		<path class="st2" d="M640.67,267.83c-0.37,0.04-0.71-0.23-0.75-0.6c-0.04-0.37,0.23-0.71,0.6-0.75l0.24-0.03
			c7.58-0.95,15.58-12.2,16.1-18.9c0.48-0.27,0.94-0.55,1.4-0.87c-0.35,7.55-8.83,20.05-17.34,21.11L640.67,267.83z"/>
		<g>
			<path class="st8" d="M611.32,239.5l30.79,1.65c0,0,1.23,0.35,1.19,1.48c-0.04,1.13-1.12,22.94-1.12,22.94s-0.05,1.96-1.27,3.66
				c-1.22,1.7-10.91,17.66-29.6,17.66c-18.68,0-28.38-15.97-29.59-17.66c-1.22-1.7-1.27-3.66-1.27-3.66s-1.08-21.81-1.12-22.94
				c-0.04-1.13,1.19-1.48,1.19-1.48L611.32,239.5z"/>
			<path class="st13" d="M611.33,241.86l-29.59,1.58c0.26,7.33,0.76,14.69,1.08,22.02c0.04,0.78,0.38,1.76,0.83,2.39
				c0.82,1.15,1.56,2.27,2.45,3.39c1.62,2.05,3.43,3.96,5.42,5.66c5.65,4.84,12.31,7.63,19.81,7.63c7.5,0,14.16-2.79,19.81-7.63
				c1.98-1.7,3.8-3.61,5.42-5.66c0.89-1.12,1.62-2.24,2.45-3.39c0.45-0.63,0.79-1.6,0.83-2.39c0.33-7.33,0.82-14.69,1.08-22.02
				L611.33,241.86z"/>
			<path class="st2" d="M582.18,252.96c0.15,2.87,0.31,5.73,0.46,8.59l27.29-10.53L582.18,252.96L582.18,252.96z M582.78,264.5
				l0.04,0.97c0.04,0.78,0.38,1.76,0.83,2.39c0.82,1.15,1.56,2.27,2.45,3.39c1.62,2.05,3.43,3.96,5.42,5.66
				c5.65,4.84,12.31,7.63,19.81,7.63c7.5,0,14.16-2.79,19.81-7.63c1.98-1.7,3.8-3.61,5.42-5.66c0.89-1.12,1.62-2.24,2.45-3.39
				c0.12-0.17,0.24-0.37,0.34-0.58c0,0-4.8,5.19-21.46,5.19C601.23,272.46,582.78,264.5,582.78,264.5L582.78,264.5z M639.92,263.42
				c0.1-2.1,0.21-4.2,0.33-6.3l-20.35-1.42L639.92,263.42z"/>
		</g>
	</g>
	<path class="st20" d="M688.02,313.2c0,0,9.69,3.24,14.32,12.48c4.62,9.24,37.12,84.26,38.67,92.27c1.48,7.72,4.11,29.78-10.03,80.7
		h-39.43c1.52-6.52,10.21-61.01,11.57-62.52l-18.7-37.56C684.41,398.57,665.91,333.46,688.02,313.2z"/>
	<path class="st10" d="M569.82,235.57c0,0,4.81-3.46,4.81-11.86c0,0,7.7-7.16,7.09-14.71c-0.62-7.55-9.13-17.58-9.13-17.58
		s-7.66,4.79-10.43,10.03c-2.77,5.24,0.77,26.8,0.77,26.8S568.16,224.41,569.82,235.57z"/>
	<path class="st10" d="M652.84,235.57c0,0-4.81-3.46-4.81-11.86c0,0-7.7-7.16-7.09-14.71c0.62-7.55,9.13-17.58,9.13-17.58
		s7.66,4.79,10.43,10.03c2.77,5.24-0.77,26.8-0.77,26.8S654.5,224.41,652.84,235.57z"/>
	<path class="st10" d="M633.31,188.79l-0.14-0.06c-0.21,0.09-0.47,0.09-0.69-0.04c-6.11-3.57-11.75,1.56-18.37,7.6
		c-6.69,6.09-14.33,13.06-24.63,13.44c-0.93,0.26-1.87,0.45-2.84,0.56c-17.66,2.06-25.73-21.96-9.37-37.88
		c17.54-17.07,55.87-19.58,60.26,7.83C637.53,180.24,638.33,186.12,633.31,188.79L633.31,188.79z M622.19,187.85
		c-9.52,2.71-17.29,13.73-26.78,19.3c6.94-2.19,12.6-7.35,17.69-11.98C616.28,192.27,619.24,189.57,622.19,187.85z"/>
	<path class="st10" d="M632.48,188.69c0,0-0.94,20.24,10.62,23.17c11.55,2.93,15.56-12.02,9.86-26.5
		c-5.7-14.48-20.03-20.95-22.95-19.87C627.08,166.57,632.48,188.69,632.48,188.69z"/>
	<path class="st20" d="M631.26,318.14c-0.15,0.5-6.36,29.69-11.94,57.06l41.71-44.03l-6.76-27.73c-2.99-0.73-4.91-1.18-4.91-1.18
		L631.26,318.14z"/>
	<path class="st8" d="M591.39,318.14c0,0,2.09-2.56,2.79-4.42c0.7-1.86,0.46-3.14-1.63-5.23c-2.09-2.09-9.99-9.41-11.5-10.81
		c-1.51-1.39-3.08-0.75-3.89,0.06c-0.81,0.81-3.87,4.51-3.87,4.51S578.55,312.15,591.39,318.14z"/>
	<path class="st8" d="M591.39,318.14c0.27,0.92,20.73,97.38,20.73,103.93c0,0.92-0.07,45.16-0.12,76.83h-83.88
		c4.54-24.87,12.39-66.25,12.44-67.62c0.1-2.98-4.08-40.68-4.08-40.68s10.6-55.69-7.02-71.77c0,0,1.67-2.95,5.16-5.62
		c3.49-2.67,38.66-10.95,38.66-10.95L591.39,318.14z"/>
	<path class="st3" d="M598.45,351.53c6.01,28.85,13.67,66.53,13.67,70.54l-37.56-45.62l8.63-32.97
		C583.19,343.48,590.1,347.04,598.45,351.53z"/>
	<path class="st20" d="M534.63,313.2c0,0-9.7,3.24-14.32,12.48c-4.62,9.24-37.13,84.26-38.67,92.27
		c-1.48,7.72-4.11,29.78,10.03,80.7h39.43c-1.52-6.52-10.21-61.01-11.57-62.52l18.89-39.21
		C538.43,396.93,556.74,333.46,534.63,313.2z"/>
	<path class="st20" d="M591.39,318.14c0.15,0.5,6.36,29.69,11.94,57.06l-41.72-44.03l6.76-27.73c2.99-0.73,4.91-1.18,4.91-1.18
		L591.39,318.14z"/>
	<path class="st8" d="M606.17,431.44c1.19,0,2.16-0.97,2.16-2.16c0-1.19-0.97-2.16-2.16-2.16c-1.19,0-2.16,0.97-2.16,2.16
		C604.02,430.47,604.99,431.44,606.17,431.44z"/>
	<path class="st8" d="M606.17,452.24c1.19,0,2.16-0.97,2.16-2.16c0-1.19-0.97-2.16-2.16-2.16c-1.19,0-2.16,0.97-2.16,2.16
		C604.02,451.27,604.99,452.24,606.17,452.24z"/>
	<path class="st1" d="M376.62,194.31L376.62,194.31c13.11,0,23.83,18.34,23.83,40.75v33.1c0,22.41-10.72,40.75-23.83,40.75l0,0
		c-13.11,0-23.83-18.34-23.83-40.75v-33.1C352.79,212.65,363.51,194.31,376.62,194.31z"/>
	<path class="st10" d="M452.01,275.25c0,0,13.95,3.75,21.93,21.02c7.98,17.26,27.41,71.76,32.27,87.05
		c4.86,15.29-12.77,80.71-35.25,115.57h-29.54c0,0,28.54-87.21,29.76-95.6c1.23-8.38-27-57.21-27-57.21
		C436.39,321.63,436.86,297.2,452.01,275.25z"/>
	<path class="st21" d="M506.1,401.58c-3.67,26.34-18,70.72-35.15,97.32h-18.33c-2.95-4.02-5.04-7.04-5.04-7.04l2.83-20.73
		C483.3,505.04,502.37,422.34,506.1,401.58z"/>
	<path class="st0" d="M382.87,277.93l-3.86,0.46l-2.39,1.63l-2.39-1.63l-3.86-0.46l-22.75-17.85l-49.4,20l-2.46,47.4
		c3.69,47.11,14.73,122.65,14.73,126.3c0,3.65-7.83,29.24-12.69,44.79h78.81h78.25c-4.85-15.56-12.69-41.14-12.69-44.79
		c0-3.65,11.6-79.19,15.29-126.3l-2.46-47.4l-49.4-20L382.87,277.93z"/>
	<polygon class="st10" points="381.94,290.35 383.01,296.02 393.78,436.46 376.62,472.96 359.46,436.46 370.23,296.02 
		371.29,290.35 376.62,293.8 	"/>
	<path class="st11" d="M381.94,290.35l1.06,5.67l10.77,140.44l-17.16,36.5c0,0,10.08-31.43,10.48-36.3
		c0.4-4.87-6.07-138.81-7.96-140.06c-1.9-1.25-5.68-1.13-5.68-1.13l2.41-2.15l0.75,0.48L381.94,290.35z"/>
	<path class="st0" d="M371.92,278.73l2.31-0.34c0,0,0.46,0.42,0.52,1.15c0.07,0.72,0.12,2.86,0.12,2.86l-1.77,0.55
		c0,0-3.5,0.09-3.47-0.04C369.67,282.77,371.92,278.73,371.92,278.73z"/>
	<path class="st0" d="M381.32,278.73l-2.31-0.34c0,0-0.46,0.42-0.52,1.15c-0.07,0.72-0.12,2.86-0.12,2.86l1.77,0.55
		c0,0,3.5,0.09,3.47-0.04C383.57,282.77,381.32,278.73,381.32,278.73z"/>
	<path class="st10" d="M370.23,296.02l-5.03-11.04c4.35-4.09,18.49-4.09,22.85,0l-5.04,11.04
		C379.46,295.09,373.77,295.09,370.23,296.02z"/>
	<path class="st11" d="M367.2,289.38l-2-4.39c1.56-1.47,4.4-2.41,7.58-2.83L367.2,289.38L367.2,289.38z M376.73,281.92
		c4.58,0.02,9.15,1.04,11.31,3.07l-5.04,11.04c-1.37-0.36-3.05-0.58-4.81-0.67c0.95-0.76,2.2-1.81,2.24-2.06
		c0.07-0.41-0.02-9.9-0.42-10.06L376.73,281.92z"/>
	<path class="st12" d="M400.45,250.54c0,0,2.06-0.31,2.76,0c0.71,0.31,5.95,14.65,4.96,17.55c-0.99,2.9-13.96,26.69-13.96,26.69
		s-0.92,1.26-2.41,0.03c-1.49-1.23-12.79-16.43-12.79-16.43l21.44-25.94V250.54z"/>
	<path class="st10" d="M407.53,259.12l43.72,15.82c0.91,0.33,9.98,3.96,11.06,17.08c0.51,6.19-3.82,35.35-7.43,69.46
		c-4.45,42-8.44,89.9-8.44,92.32c0,4.39,7.92,29.5,12.76,45.03h-63.72l11.16-237.97C406.64,260.85,406.67,259.59,407.53,259.12z"/>
	<path class="st12" d="M352.79,250.45c0,0-2.06-0.31-2.76,0c-0.71,0.31-3.12,10.92-4.61,13.02c0,0-1.35,1.72-0.35,4.62
		c0.99,2.9,13.96,26.69,13.96,26.69s0.92,1.26,2.41,0.03c1.49-1.23,12.79-16.43,12.79-16.43l-21.44-26.03V250.45z"/>
	<path class="st10" d="M345.7,260.45l-43.72,14.49c-0.91,0.33-9.98,3.96-11.06,17.08c-0.52,6.35,4.46,36.79,8.19,71.87
		c4.39,41.21,7.68,87.54,7.68,89.9c0,4.39-7.92,29.5-12.76,45.03h63.72L345.7,267.45C345.7,267.45,346.55,260.92,345.7,260.45z"/>
	<path class="st21" d="M460.95,279.98c-3.98,11.29-15.13,48.58-4.5,86.99c0.07,0.27-0.09,0.55-0.37,0.66
		c-0.55-1.03-1.09-2.05-1.63-3.04c-9.63-38.25,1.6-74.82,5.38-85.4C460.2,279.44,460.57,279.7,460.95,279.98z"/>
	<path class="st10" d="M302,275.25c0,0-13.95,3.75-21.93,21.02c-7.98,17.26-27.41,71.76-32.27,87.05
		c-4.86,15.29,12.77,80.71,35.25,115.57h29.54c0,0-28.53-87.21-29.76-95.6c-1.23-8.38,27-57.21,27-57.21
		C317.62,321.63,317.15,297.2,302,275.25z"/>
	<path class="st21" d="M247.9,401.58c3.67,26.34,18,70.72,35.15,97.32h13.57c0.24-0.33,5.53-27.76,5.78-30.62
		c-5.33,3.77-9.84,8-21.46,4.15C266.25,467.55,251.75,422.99,247.9,401.58z"/>
	<path class="st21" d="M283.38,405.81c-0.29-1.13-0.47-1.98-0.55-2.51c-0.72-4.92,7.75-23.05,15.66-37.78
		c1.24-2.32,2.21,22.38,3.34,20.33c-0.4-4.82,0.53-35.43,0.48-35.66c-0.28-1.36-19.7,38.1-20.84,41.18
		C280.34,394.45,283.38,405.81,283.38,405.81L283.38,405.81z"/>
	<path class="st21" d="M293.06,279.98c3.98,11.29,15.13,48.58,4.5,86.99c-0.07,0.27,0.09,0.55,0.37,0.66
		c0.55-1.03,1.09-2.05,1.62-3.04c9.63-38.25-1.6-74.82-5.38-85.4C293.81,279.44,293.44,279.7,293.06,279.98z"/>
	<g>
		<path class="st21" d="M407.86,259.62l11.62,4.35c3.16,7.04,14.1,31.56,13.61,32.4c-0.57,0.99-17.15,3.82-17.15,3.82
			s12.69,5.24,13.11,5.55c0.42,0.31,1.13,0.86,0.85,2.71c-0.25,1.61-26.09,116.5-32.88,146.68l9.94-193.79
			C406.97,261.35,407.01,260.09,407.86,259.62z"/>
		<path class="st22" d="M409.02,296.64l16.73,6.04c0,0,1.7,0.92,1.56,2.03c-0.14,1.11-30.04,143.87-30.04,143.87l5.37-150.42
			L409.02,296.64z"/>
		<path class="st23" d="M399.19,393.72l3.41-95.55l1.02-0.24c-1.79,38.92-4.42,95.91-4.42,95.91L399.19,393.72z"/>
		<path class="st8" d="M407.03,258.95l8.64,3.03c0,0,0.76,0.19,1,1.08c0.24,0.89,12.18,28.85,12.47,29.84
			c0.29,0.99-0.49,2.04-2.13,2.53c-1.63,0.49-24.51,6.72-24.51,6.72l3.35-41.93C405.85,260.22,406.01,258.98,407.03,258.95z"/>
	</g>
	<g>
		<path class="st21" d="M344.53,260.28l-10.81,3.69c-3.16,7.04-14.1,31.56-13.61,32.4c0.56,0.99,17.15,3.82,17.15,3.82
			s-12.69,5.24-13.11,5.55c-0.42,0.31-1.13,0.86-0.85,2.71c0.25,1.61,26.09,116.5,32.88,146.68l-11.31-190.02
			C344.86,265.12,345.39,260.75,344.53,260.28z"/>
		<path class="st22" d="M344.19,296.64l-16.73,6.04c0,0-1.7,0.92-1.56,2.03c0.14,1.11,30.04,143.87,30.04,143.87l-5.37-150.42
			L344.19,296.64z"/>
		<path class="st23" d="M354.02,393.72l-3.41-95.55l-1.02-0.24c1.79,38.92,4.42,95.91,4.42,95.91L354.02,393.72z"/>
		<path class="st8" d="M346.53,259.45l-8.99,2.53c0,0-0.76,0.19-1,1.08c-0.24,0.89-12.18,28.85-12.47,29.84
			c-0.29,0.99,0.49,2.04,2.13,2.53c1.63,0.49,24.51,6.72,24.51,6.72S347.2,269.12,346.53,259.45z"/>
	</g>
	<g>
		<path class="st4" d="M419.89,187.54c0.32,0.05,0.64,0.1,0.95,0.17l0.01,0l0,0c5.79,1.25,10.15,6.37,10.22,12.54
			c0.08,7.17-5.66,13.06-12.83,13.14c-7.17,0.09-13.06-5.66-13.14-12.83c-0.05-4.17,1.87-7.9,4.89-10.31
			c-0.36,3.83,0.22,8.58,5.11,9.09l-0.09-7.49C414.97,188.81,417.81,187.44,419.89,187.54z"/>
		<path class="st4" d="M334.3,187.52c-0.32,0.04-0.64,0.09-0.95,0.15l-0.01,0v0c-5.8,1.17-10.23,6.22-10.4,12.39
			c-0.19,7.17,5.48,13.13,12.65,13.32c7.17,0.19,13.13-5.48,13.32-12.64c0.11-4.17-1.76-7.93-4.75-10.38
			c0.3,3.84-0.34,8.58-5.23,9.02l0.19-7.49C339.2,188.87,336.38,187.45,334.3,187.52z"/>
	</g>
	<path class="st5" d="M377.01,252.57c-24.24,0-44.47-29.92-44.47-53.53v-31.38c0-24.46,20.01-44.46,44.46-44.46h0.01
		c24.45,0,44.46,20.01,44.46,44.46v30.71C421.47,224.26,403.83,252.57,377.01,252.57z"/>
	<path class="st1" d="M333.04,158.34c3.24-21.32,21.77-37.79,43.96-37.79h0.01c21.48,0,39.53,15.44,43.6,35.77
		c-6.16,0.01-13.01,7.76-13.01,7.76c-41.56,19.79-67.19,0.18-67.19,0.18C337.47,162.36,335.04,160.37,333.04,158.34z"/>
	<g>
		<path class="st1" d="M407.53,197.88c-4.14,0.08-7.43,3.5-7.36,7.63c0.08,4.14,3.5,7.43,7.63,7.36c4.14-0.08,7.43-3.49,7.36-7.63
			C415.09,201.1,411.67,197.8,407.53,197.88z"/>
		<path class="st1" d="M346.2,199.07c-4.14,0.08-7.43,3.49-7.36,7.63c0.08,4.14,3.49,7.43,7.63,7.36c4.14-0.08,7.43-3.49,7.36-7.63
			C353.76,202.29,350.34,198.99,346.2,199.07z"/>
	</g>
	<g>
		<path class="st0" d="M362.24,177.25c0.94,0.42,1.35,1.53,0.93,2.47c-0.42,0.94-1.53,1.35-2.47,0.93
			c-0.02-0.01-5.63-2.66-10.99,0.71c-0.87,0.55-2.03,0.28-2.58-0.59c-0.55-0.87-0.29-2.03,0.59-2.58
			C354.8,173.73,362.22,177.24,362.24,177.25z"/>
		<path class="st0" d="M406.21,178.08c0.9,0.5,1.22,1.64,0.72,2.53c-0.5,0.9-1.63,1.22-2.53,0.72c-0.02-0.01-5.4-3.11-11.02-0.19
			c-0.91,0.48-2.05,0.12-2.52-0.79c-0.48-0.91-0.12-2.05,0.8-2.52C399.08,173.97,406.19,178.07,406.21,178.08z"/>
	</g>
	<path class="st6" d="M378.2,200.04c0.83,2.25,2.28,6.32,2.15,7.01c-0.17,0.96-5.1,1.84-6.39,0.58c-0.86-0.84,0.21-4.51,1.14-6.99
		C376.38,197.28,377.08,197.01,378.2,200.04z"/>
	<g>
		<path class="st7" d="M386.35,217.82c0,5.16-4.19,9.34-9.34,9.34c-5.16,0-9.34-4.18-9.34-9.34c0-0.95,0.77-1.72,1.72-1.72h15.25
			C385.57,216.1,386.35,216.87,386.35,217.82z"/>
		<path class="st8" d="M370.32,216.1h13.36v1.58c0,0.82-0.67,1.5-1.5,1.5h-10.37c-0.82,0-1.5-0.67-1.5-1.5V216.1z"/>
		<path class="st9" d="M383.78,224.25c-1.7,1.79-4.11,2.91-6.77,2.91c-2.67,0-5.07-1.12-6.77-2.91c1.7-1.79,4.11-2.91,6.77-2.91
			C379.67,221.35,382.07,222.46,383.78,224.25z"/>
	</g>
	<g>
		<path class="st0" d="M355.26,196.83c2.95,0,5.36-2.41,5.36-5.36c0-2.95-2.41-5.35-5.36-5.35c-2.95,0-5.36,2.4-5.36,5.35
			C349.9,194.42,352.31,196.83,355.26,196.83z"/>
		<path class="st0" d="M398.75,196.83c2.95,0,5.36-2.41,5.36-5.36c0-2.95-2.41-5.35-5.36-5.35c-2.95,0-5.35,2.4-5.35,5.35
			C393.4,194.42,395.8,196.83,398.75,196.83z"/>
	</g>
	<path class="st0" d="M332.54,197.8l4.3-17.39c0,0,13.84-10.15,8.92-24.28c-4.92-14.13-5.88-12.73-5.88-12.73
		s-18.44,8.31-10.23,45.76L332.54,197.8z"/>
	<path class="st0" d="M421.47,197.8l-4.3-17.39c0,0-13.84-10.15-8.92-24.28c4.92-14.13,5.88-12.73,5.88-12.73
		s18.44,8.31,10.23,45.76L421.47,197.8z"/>
	<path class="st2" d="M411.54,206.65c-0.11,0.36-0.48,0.56-0.84,0.45c-0.36-0.11-0.56-0.48-0.46-0.84
		c0.01-0.04,3.42-11.59,9.27-16.39l0.35,1.43C414.69,195.96,411.55,206.61,411.54,206.65z"/>
	<path class="st2" d="M409.89,233.38c-0.37,0.04-0.7-0.23-0.74-0.6c-0.04-0.37,0.23-0.7,0.6-0.75l0.24-0.03
		c4.03-0.5,7.33-4.22,9.55-8.72c1.71-3.48,2.77-7.41,3.03-10.7c0.47-0.17,0.94-0.38,1.38-0.6c-0.17,3.61-1.3,8.03-3.2,11.9
		c-2.4,4.87-6.04,8.9-10.59,9.46L409.89,233.38z"/>
	<path class="st2" d="M342.48,206.65c0.11,0.36,0.48,0.56,0.84,0.45c0.36-0.11,0.56-0.48,0.46-0.84
		c-0.01-0.04-3.42-11.59-9.27-16.39l-0.35,1.43C339.32,195.96,342.47,206.61,342.48,206.65z"/>
	<path class="st2" d="M344.12,233.38c0.37,0.04,0.71-0.23,0.75-0.6c0.04-0.37-0.23-0.7-0.6-0.75l-0.24-0.03
		c-4.03-0.5-7.33-4.22-9.55-8.72c-1.71-3.48-2.77-7.41-3.03-10.7c-0.48-0.17-0.94-0.38-1.39-0.6c0.17,3.61,1.3,8.03,3.2,11.9
		c2.4,4.87,6.04,8.9,10.59,9.46L344.12,233.38z"/>
	<g>
		<path class="st8" d="M377.01,201.48l34.63,1.85c0,0,1.38,0.4,1.34,1.67c-0.04,1.27-1.25,25.81-1.25,25.81s-0.06,2.21-1.43,4.12
			c-1.37,1.91-12.27,19.87-33.29,19.87c-21.02,0-31.92-17.96-33.29-19.87c-1.37-1.91-1.43-4.12-1.43-4.12s-1.21-24.54-1.25-25.81
			c-0.04-1.27,1.34-1.67,1.34-1.67L377.01,201.48z"/>
		<path class="st13" d="M377.01,204.14l-33.28,1.78c0.29,8.24,0.85,16.53,1.22,24.77c0.04,0.88,0.43,1.98,0.93,2.68
			c0.93,1.29,1.76,2.55,2.75,3.81c1.82,2.31,3.86,4.46,6.1,6.37c6.35,5.44,13.84,8.58,22.28,8.58c8.44,0,15.93-3.14,22.28-8.58
			c2.23-1.91,4.27-4.06,6.1-6.37c1-1.26,1.82-2.52,2.75-3.81c0.51-0.71,0.89-1.81,0.93-2.68c0.37-8.24,0.93-16.53,1.22-24.77
			L377.01,204.14z"/>
		<path class="st2" d="M344.22,216.63c0.17,3.22,0.35,6.44,0.52,9.66l30.7-11.84L344.22,216.63L344.22,216.63z M344.89,229.6
			l0.05,1.09c0.04,0.88,0.43,1.98,0.93,2.68c0.93,1.29,1.76,2.55,2.75,3.81c1.82,2.31,3.86,4.46,6.1,6.37
			c6.35,5.44,13.84,8.58,22.28,8.58c8.44,0,15.93-3.14,22.28-8.58c2.23-1.91,4.27-4.06,6.1-6.37c1-1.26,1.82-2.52,2.75-3.81
			c0.14-0.19,0.27-0.42,0.39-0.65c0,0-5.4,5.84-24.14,5.84C365.65,238.56,344.89,229.6,344.89,229.6L344.89,229.6z M409.18,228.39
			c0.11-2.36,0.24-4.73,0.37-7.09l-22.89-1.6L409.18,228.39z"/>
	</g>
	<path class="st0" d="M344.92,160.6c0,0,23.79,19.61,62.37-0.19c0,0,9.9-12.06,16.09-6.12c0,0,2.43-33.28-21.48-33.61
		c0,0,4.32-4.67,3.08-8.44c-1.23-3.78-11.32-12.86-32.59,0.59c0,0-1.6-9.81-9.54-10.13C347.41,102.09,311.64,137.46,344.92,160.6z"
		/>
	<path class="st21" d="M470.62,405.81c0.29-1.13,0.47-1.98,0.55-2.51c0.73-5.01-7.64-23.3-15.63-38.15
		c-1.09-2.02-3.57,33.21-4.56,31.41c0.4-4.82,0.66-46.15,0.71-46.37c0.28-1.36,19.7,38.1,20.84,41.18
		C473.67,394.45,470.63,405.81,470.62,405.81L470.62,405.81z"/>
</g>
</svg>
