<?xml version="1.0" encoding="utf-8"?>
<!-- Generator: Adobe Illustrator 23.0.1, SVG Export Plug-In . SVG Version: 6.00 Build 0)  -->
<svg version="1.1" xmlns="http://www.w3.org/2000/svg" xmlns:xlink="http://www.w3.org/1999/xlink" x="0px" y="0px"
	 viewBox="0 0 750 500" style="enable-background:new 0 0 750 500;" xml:space="preserve">
<style type="text/css">
	.st0{fill:#1D2B3C;}
	.st1{fill:#16212E;}
	.st2{fill:#ED9E9D;}
	.st3{fill:#E19695;}
	.st4{fill:#F1B4B3;}
	.st5{fill:#C58382;}
	.st6{fill:#273A51;}
	.st7{fill:#A66E6D;}
	.st8{fill:#5C51A9;}
	.st9{fill:#AFC8E2;}
	.st10{fill:#A4BCD4;}
	.st11{fill:#FEFEFE;}
	.st12{fill:#9BD7CD;}
	.st13{fill:#94CEC4;}
</style>
<g id="BACKGROUND">
</g>
<g id="OBJECTS">
	<g>
		<g>
			<path class="st0" d="M122.98,161.04c-1.1,0-2.2,0.02-3.3,0.05c-3.83,0.11-7.66,0.41-11.38,0.9c-3.82,0.5-7.59,1.24-11.2,2.2
				c-3.74,0.99-7.25,2.21-10.44,3.65c-6.95,3.12-12.28,7.25-15.84,12.28c-0.72,1.03-1.38,2.11-1.95,3.22
				c-2.13,0.21-4.22,0.79-6.19,1.73c-2.51,1.2-4.86,2.92-7.17,5.28c-1.94,1.98-3.74,4.35-5.48,7.23c-1.71,2.82-3.13,5.8-4.2,8.85
				c-1,2.85-1.65,5.72-1.93,8.54c-0.26,2.65-0.22,5.48,0.14,8.4c0.31,2.49,0.86,5.19,1.74,8.49c0.34,1.28,0.73,2.65,1.23,4.31
				l0.31,0.99c0.36,1.17,0.74,2.37,1,3.59c0.29,1.54,0.4,2.95,0.34,4.32c-0.1,1.37-0.39,2.78-0.85,4.21
				c-0.64,1.83-1.5,3.61-2.34,5.33c-0.4,0.82-0.8,1.65-1.18,2.48c-0.73,1.6-1.35,3.19-1.87,4.74c-0.47,1.42-0.83,2.9-1.11,4.54
				c-0.99,5.84-0.42,12.41,1.64,18.98c0.83,2.64,1.97,5.36,3.38,8.09c1.29,2.5,2.83,4.93,4.58,7.23c1.79,2.36,3.76,4.48,5.86,6.32
				c2.17,1.9,4.44,3.37,6.77,4.36c0.01,0.39,0.27,0.76,0.63,0.89c0.26,0.09,0.51,0.19,0.76,0.32l0.26,0.13l0.54,0.27l0.8,0.41
				l0.8,0.41l1.39,0.71l2.11,1.07c2.3,1.16,4.61,2.32,6.92,3.46c5.24,2.59,9.96,4.82,14.42,6.83c11.18,5.04,21.15,8.76,30.46,11.38
				c11.12,3.14,21.18,4.66,30.76,4.66l0.39,0c5.25-0.02,10.41-0.54,15.32-1.54c5.07-1.03,10.07-2.65,14.88-4.83
				c2.43-1.1,4.72-2.33,6.82-3.64c2.01-1.25,3.99-2.76,5.91-4.47c3.82-3.42,6.83-7.34,8.93-11.64c1.02-2.09,1.78-4.38,2.26-6.8
				c0.45-2.26,0.54-4.67,0.27-7.18c-0.25-2.26-0.9-4.61-1.94-6.98c-0.87-1.98-2.02-3.79-3.12-5.45c-0.36-0.54-0.73-1.08-1.1-1.62
				c-0.63-0.91-1.26-1.82-1.85-2.75c-0.99-1.62-1.66-3-2.1-4.34c-0.33-1.1-0.52-2.24-0.57-3.39c-0.01-1.28,0.13-2.58,0.45-3.98
				c0.32-1.26,0.75-2.52,1.12-3.59c0.47-1.33,0.99-2.67,1.48-3.93l0.45-1.13c0.79-2.01,1.61-4.08,2.29-6.17
				c0.85-2.63,1.35-4.99,1.52-7.23c0.19-2.48-0.11-5.06-0.86-7.47c-0.81-2.58-2.11-5.07-3.76-7.21c-1.21-1.57-2.76-3.05-4.89-4.67
				c-1.54-1.18-3.19-2.25-4.79-3.29c-2.12-1.38-4.31-2.8-6.26-4.48c-0.26-0.22-0.52-0.46-0.76-0.69c-0.53-0.51-1.04-1.05-1.53-1.61
				c-0.53-0.61-1.05-1.32-1.64-2.23c-1.1-1.81-2.01-3.82-2.7-5.98c-1.28-4.27-1.68-8.78-2.07-13.15c-0.07-0.75-0.13-1.5-0.2-2.25
				c-0.21-2.14-0.52-4.95-1.12-7.75c-0.54-2.52-1.36-4.95-2.43-7.22c-0.96-2.03-2.21-4.02-3.72-5.93c-1.31-1.65-2.92-3.27-4.79-4.83
				c-3.19-2.65-7.2-4.93-11.92-6.78c-6.01-2.35-12.83-3.77-20.85-4.34C128.08,161.13,125.55,161.04,122.98,161.04 M156.07,339.81
				l0-0.01l-0.05-0.01c0.25,0,0.49-0.01,0.74-0.02c-0.23,0.01-0.45,0.02-0.68,0.03L156.07,339.81z"/>
			<path class="st1" d="M142.67,175.18c-0.66,0.09-1.3,0.19-1.95,0.3c-0.65,0.12-1.3,0.25-1.95,0.39c0.02,0,0.04-0.01,0.07-0.01
				c-2.94,0.65-5.83,1.54-8.63,2.63c-1.47,0.57-2.92,1.19-4.35,1.85c-1.31,0.61-2.6,1.25-3.88,1.92c-0.01,0-0.01,0.01-0.02,0.01
				c-0.01,0.01-0.02,0.01-0.04,0.02c-2.54,1.35-5.01,2.8-7.43,4.36c-1.18,0.76-2.36,1.54-3.51,2.35c-1.17,0.82-2.33,1.65-3.48,2.49
				c-2.36,1.73-4.7,3.49-6.99,5.32c-2.19,1.76-4.33,3.57-6.4,5.48c-2.06,1.9-4.06,3.88-5.94,5.96c-0.53,0.58-1.05,1.17-1.55,1.76
				c-0.43,0.51-0.86,1.01-1.26,1.54c-0.4,0.51-0.79,1.03-1.16,1.56c-0.36,0.52-0.71,1.04-1.06,1.57c-0.78,1.23-1.52,2.49-2.19,3.79
				c-0.66,1.3-1.29,2.62-1.86,3.96c-0.57,1.34-1.1,2.7-1.6,4.07c-0.46,1.29-0.9,2.58-1.32,3.88v-0.01c-0.62,1.91-1.21,3.82-1.8,5.73
				c-0.28,0.91-0.56,1.83-0.86,2.74c-0.27,0.81-0.56,1.62-0.88,2.42c-0.65,1.65-1.36,3.27-2.13,4.86c-0.71,1.48-1.47,2.94-2.25,4.39
				c-1.62,3-3.32,5.95-4.89,8.98c-0.77,1.5-1.52,3-2.18,4.55c-0.63,1.46-1.21,2.94-1.71,4.45c0-0.01,0.01-0.02,0.01-0.04
				c-0.5,1.55-0.93,3.12-1.23,4.72c-0.16,0.82-0.29,1.65-0.39,2.48c-0.1,0.84-0.17,1.68-0.21,2.53c0-0.01,0-0.01,0-0.02
				c0,0.02,0,0.04,0,0.05c0,0.01,0,0.01,0,0.02v-0.01c-0.03,0.98-0.05,1.95-0.01,2.93c0.04,0.9,0.1,1.8,0.19,2.7
				c0.1,0.98,0.22,1.95,0.39,2.92c0.14,0.85,0.3,1.69,0.49,2.53c0-0.01,0-0.02,0-0.02l0.01,0.04c0,0.01,0,0.01,0,0.02
				c0-0.01,0-0.01,0-0.02c0.51,2.22,1.15,4.42,1.96,6.55c0.41,1.07,0.84,2.12,1.32,3.16c0.43,0.95,0.89,1.89,1.38,2.82
				c-0.01-0.02-0.02-0.04-0.03-0.06c1.34,2.53,2.86,4.96,4.54,7.28c0.85,1.16,1.73,2.31,2.64,3.42c0.86,1.04,1.75,2.06,2.67,3.05
				l-0.05-0.05c0.74,0.8,1.49,1.58,2.26,2.35c0.78,0.39,1.55,0.77,2.33,1.16c5.23,2.59,9.95,4.83,14.42,6.83
				c11.22,5.05,21.19,8.78,30.46,11.39c11.13,3.14,21.19,4.66,30.77,4.66l0.4,0c5.26-0.02,10.41-0.54,15.33-1.54
				c2.5-0.51,5-1.17,7.46-1.96c0.02-0.03,0.04-0.06,0.06-0.09c0.86-1.33,1.64-2.72,2.32-4.15c0.36-0.75,0.7-1.52,1-2.29
				c0.27-0.69,0.53-1.38,0.76-2.08v0.01c0.49-1.51,0.9-3.04,1.18-4.6c0.13-0.74,0.25-1.49,0.34-2.23c0.09-0.75,0.15-1.5,0.19-2.25
				v0.07c0.06-1.43,0.05-2.87-0.08-4.3c-0.06-0.68-0.14-1.36-0.24-2.03c-0.11-0.67-0.23-1.33-0.38-1.99c0,0,0,0,0,0
				c0-0.01,0-0.01,0-0.02c0,0.01,0,0.01,0,0.01c0,0,0-0.01,0-0.01v0c0,0,0-0.01,0-0.01c-0.29-1.26-0.65-2.51-1.09-3.72
				c-0.25-0.66-0.51-1.32-0.8-1.97c-0.26-0.59-0.54-1.16-0.84-1.73c0.01,0.02,0.02,0.04,0.03,0.05c-0.94-1.79-2.03-3.5-3.14-5.2
				c-0.61-0.93-1.22-1.85-1.81-2.78c-0.53-0.83-1.05-1.67-1.52-2.53c-0.47-0.85-0.93-1.72-1.3-2.62c-0.36-0.86-0.68-1.75-0.91-2.65
				c-0.23-0.95-0.4-1.91-0.44-2.88c-0.04-0.95-0.01-1.89,0.13-2.83c0.17-1.14,0.44-2.25,0.83-3.34c0.34-0.98,0.75-1.94,1.22-2.86
				c1.6-3.12,3.78-5.9,5.99-8.61c2.27-2.79,4.63-5.52,6.59-8.54c0,0.01-0.01,0.02-0.01,0.02c0.59-0.92,1.16-1.87,1.65-2.86
				c0.24-0.48,0.47-0.97,0.67-1.47c0.17-0.42,0.33-0.84,0.47-1.27c0.22-0.68,0.41-1.38,0.54-2.09c0.07-0.39,0.14-0.78,0.18-1.18
				c0.03-0.31,0.05-0.62,0.07-0.94c0-0.02,0-0.04,0-0.07c0,0,0,0.01,0,0.01c0.02-0.67,0.01-1.35-0.05-2.01
				c-0.07-0.65-0.17-1.29-0.31-1.92c0,0.02,0.01,0.04,0.01,0.07c-0.19-0.83-0.43-1.65-0.74-2.44c-0.15-0.39-0.31-0.77-0.48-1.15
				c-0.18-0.38-0.36-0.75-0.55-1.12l0.01,0.01c-0.33-0.63-0.68-1.26-1.09-1.84c-0.2-0.28-0.4-0.56-0.63-0.82
				c-0.21-0.25-0.42-0.49-0.64-0.73c0,0,0.01,0.01,0.01,0.01l-0.01-0.01v0l-0.02-0.02c0.01,0,0.01,0.01,0.02,0.01
				c-0.01-0.01-0.02-0.02-0.03-0.03c0,0,0,0.01,0,0.01c-0.69-0.73-1.43-1.41-2.22-2.04c-0.81-0.65-1.64-1.25-2.48-1.86
				c-0.84-0.6-1.68-1.2-2.5-1.84c-0.75-0.58-1.49-1.18-2.18-1.83c-0.7-0.67-1.38-1.39-1.95-2.17c-0.6-0.83-1.15-1.71-1.6-2.63
				c-0.52-1.06-0.96-2.17-1.27-3.32c-0.26-0.96-0.47-1.93-0.61-2.92c-0.16-1.16-0.27-2.33-0.31-3.51c-0.05-1.2-0.06-2.39-0.06-3.59
				c0.01-2.13,0.05-4.25-0.02-6.38c-0.06-1.82-0.18-3.63-0.39-5.44c-0.2-1.7-0.47-3.39-0.84-5.05c0,0.02,0.01,0.04,0.01,0.07
				c-0.32-1.44-0.71-2.86-1.21-4.25c-0.25-0.7-0.51-1.4-0.82-2.08c-0.27-0.61-0.56-1.21-0.86-1.79c0.01,0.01,0.02,0.03,0.03,0.05
				c-0.49-0.92-1.03-1.82-1.63-2.68c-0.59-0.84-1.22-1.64-1.91-2.39l-0.01-0.01c0,0,0-0.01-0.01-0.01c-0.66-0.71-1.36-1.39-2.1-2.02
				c-0.78-0.65-1.59-1.25-2.45-1.8c0.02,0.01,0.03,0.02,0.05,0.03c-1.02-0.65-2.08-1.24-3.17-1.74c-1.11-0.51-2.24-0.95-3.4-1.34
				c0.02,0.01,0.04,0.02,0.06,0.02c-0.77-0.25-1.55-0.48-2.33-0.68c-0.43-0.11-0.86-0.21-1.29-0.3
				C145.05,174.91,143.86,175.02,142.67,175.18 M184.66,260.16c-0.01,0.01-0.01,0.02-0.02,0.03
				C184.65,260.18,184.66,260.17,184.66,260.16 M59.45,268.48c0,0.01,0,0.02-0.01,0.02C59.45,268.5,59.45,268.49,59.45,268.48
				 M180.72,329.7c-0.01,0.02-0.01,0.04-0.02,0.05C180.71,329.74,180.71,329.72,180.72,329.7"/>
			<path class="st1" d="M121.94,182.28c0.01,0,0.01-0.01,0.02-0.01L121.94,182.28z"/>
			<polyline class="st1" points="181.7,312.42 181.7,312.42 181.7,312.42 			"/>
			<path class="st1" d="M160.9,182.7C160.9,182.7,160.89,182.7,160.9,182.7C160.89,182.7,160.9,182.7,160.9,182.7"/>
			<polyline class="st1" points="183.74,238.37 183.73,238.36 183.74,238.37 			"/>
			<path class="st1" d="M181.7,312.4c0,0,0-0.01,0-0.01C181.69,312.4,181.7,312.4,181.7,312.4"/>
			<path class="st2" d="M111.09,271.78c-0.87,0-1.76,0.05-2.64,0.15c-2.27,0.25-5.49,1.04-7.89,3.32c-0.25,0.24-0.49,0.49-0.71,0.76
				c-0.06-1.04-0.18-2.11-0.33-3.29c-0.04-0.26-0.25-0.5-0.44-0.62c-0.17-0.1-0.36-0.16-0.56-0.16c-0.07,0-0.15,0.01-0.22,0.02
				c-0.25,0.06-0.48,0.22-0.62,0.44c-0.17,0.27-0.17,0.54-0.14,0.77c0.11,0.8,0.2,1.61,0.28,2.42l0.02,0.11l0.01,0
				c0.3,3.75,0.21,7.03-0.31,10.02c-0.37,1.95-0.92,3.74-1.65,5.34c-0.64,1.32-1.41,2.55-2.31,3.63c-0.87,1.02-1.9,1.96-3.04,2.78
				c-1.34,0.92-2.85,1.7-4.49,2.31l0.25-0.08c-0.68,0.23-1.38,0.46-2.08,0.65c-0.37,0.11-0.74,0.2-1.11,0.29
				c-0.33,0.08-0.67,0.14-1.01,0.2l-0.34,0.06c-0.25,0.05-0.46,0.2-0.61,0.42c-0.16,0.24-0.21,0.53-0.15,0.79
				c0.01,0.04,0.02,0.07,0.03,0.1c-0.09,0.06-0.17,0.15-0.23,0.24c-0.13,0.2-0.22,0.52-0.13,0.77c1.95,5.58,5.7,10.8,11.13,15.51
				c2.59,2.25,5.4,4.22,8.33,5.86c3,1.68,6.06,2.98,9.1,3.87c3.02,0.88,5.95,1.33,8.71,1.33c3.19,0,6.13-0.6,8.71-1.8
				c2.54-1.18,4.82-3.08,6.61-5.5c1.84-2.51,3.17-5.7,3.96-9.5c0.75-3.6,0.93-6.81,0.57-9.81c-0.02-0.15-0.1-0.31-0.24-0.46
				c-0.06-0.43-0.43-0.88-0.94-0.88l-0.4,0.01c-0.82,0-1.56-0.06-2.28-0.18c-0.69-0.14-1.33-0.34-1.92-0.6
				c-0.49-0.24-0.94-0.53-1.35-0.85c-0.37-0.32-0.71-0.7-1.02-1.12c-0.36-0.54-0.66-1.12-0.92-1.79c-0.34-0.99-0.57-2.07-0.69-3.32
				c-0.23-2.73,0.06-5.48,0.37-7.81c0.17-1.26,0.37-2.52,0.57-3.78c0.19-1.18,0.38-2.36,0.54-3.54c0.03-0.23-0.04-0.47-0.21-0.67
				c-0.19-0.23-0.48-0.37-0.75-0.38c-0.01,0-0.01,0-0.02,0c-0.29,0-0.53,0.1-0.71,0.27c-0.19,0.17-0.29,0.38-0.33,0.7
				c-0.04,0.3-0.08,0.59-0.13,0.89c-0.38-0.77-0.89-1.49-1.49-2.17c-0.91-1.03-2.07-1.96-3.44-2.77c-1.29-0.76-2.75-1.4-4.35-1.9
				C115.84,272.14,113.48,271.78,111.09,271.78"/>
			<path class="st3" d="M108.45,271.91c-2.27,0.25-5.48,1.04-7.91,3.33c-0.25,0.24-0.49,0.5-0.71,0.76
				c-0.02-0.89-0.11-1.87-0.3-3.27c-0.04-0.27-0.25-0.52-0.45-0.64c-0.17-0.11-0.37-0.17-0.57-0.17c-0.09,0-0.17,0.02-0.22,0.03
				c-0.26,0.06-0.49,0.22-0.63,0.45c-0.18,0.28-0.17,0.57-0.14,0.79c0.04,0.32,0.08,0.63,0.12,0.95c0.42,1.12,0.89,2.23,1.42,3.3
				c-0.01-0.02-0.02-0.04-0.03-0.06c1.45,2.9,3.29,5.59,5.43,8.02c-0.01-0.01-0.01-0.02-0.02-0.03c0.98,1.1,2.02,2.15,3.14,3.11
				c0.43,0.37,0.86,0.73,1.32,1.07c0.35,0.26,0.71,0.51,1.08,0.75l-0.06-0.04c1.93,1.24,4.03,2.23,6.21,2.93h0
				c1.64,0.52,3.33,0.89,5.05,0.99c1.05,0.05,2.1,0,3.14-0.2c-0.02,0-0.04,0.01-0.06,0.01c0.76-0.16,1.49-0.39,2.19-0.73
				c-0.02,0.01-0.04,0.02-0.06,0.03c0.55-0.28,1.07-0.62,1.54-1.01h0c0.02-0.02,0.04-0.04,0.06-0.05c-0.02-2.13,0.21-4.21,0.45-6.02
				c0.17-1.26,0.37-2.52,0.57-3.78c0.19-1.18,0.38-2.36,0.54-3.54c0.03-0.23-0.04-0.48-0.21-0.69c-0.2-0.23-0.49-0.38-0.77-0.39
				c-0.31,0-0.55,0.09-0.74,0.27c-0.19,0.17-0.29,0.39-0.33,0.71c-0.04,0.3-0.08,0.59-0.13,0.89c-0.33-0.73-0.82-1.47-1.45-2.18
				c-0.91-1.03-2.07-1.96-3.45-2.77c-1.31-0.77-2.77-1.41-4.35-1.9c-2.27-0.7-4.64-1.06-7.02-1.06
				C110.24,271.76,109.35,271.81,108.45,271.91 M104.42,285.34l0.02,0.02L104.42,285.34z"/>
			<path class="st4" d="M140.42,174.47c-4.35,0-8.91,1.06-14.8,3.44c-2.78,1.12-5.5,2.43-7.84,3.56c-2.31,1.12-4.62,2.24-6.94,3.35
				c-3.69,1.76-7.31,3.73-10.78,5.86c-4.01,2.47-7.67,5.09-10.86,7.78c-3.63,3.06-6.55,6.13-8.93,9.39
				c-2.57,3.52-4.29,7.13-5.12,10.72c-0.68,2.97-0.76,5.98-0.22,8.94c0.37,2.1,1.1,4.24,2.15,6.37c-1.24-0.72-2.6-1.26-4.04-1.63
				c-1.14-0.29-2.36-0.44-3.63-0.44c-0.82,0-1.67,0.06-2.54,0.19c-1.47,0.21-2.87,0.67-4.06,1.33c-1.13,0.62-2.13,1.48-2.96,2.55
				c-1.39,1.77-2.15,4.26-2.15,7.01c0.01,2.64,0.67,5.4,1.97,8.18c1.27,2.72,3.1,5.2,5.29,7.19c2.41,2.18,5.22,3.73,8.12,4.46
				c1.37,0.35,2.8,0.52,4.25,0.52c1,0,2.01-0.08,3.02-0.25c2.77,4.07,5.91,7.59,9.3,10.46c1.94,1.64,4.04,3.14,6.24,4.46
				c2.07,1.25,4.35,2.38,6.96,3.46c2.35,0.97,4.84,1.81,7.62,2.56c2.86,0.77,5.53,1.32,8.15,1.67c2.12,0.28,4.31,0.43,6.5,0.43
				c3.2,0,6.46-0.3,9.69-0.9c11.46-2.13,21.45-8.2,27.4-16.66c1.67-2.37,2.97-5.06,3.87-7.99c0.78-2.53,1.23-5.3,1.38-8.46
				c0.12-2.55,0.01-5.3-0.33-8.66c-0.32-3.02-0.79-6.06-1.25-8.91l-0.2-1.22c-0.36-2.22-0.73-4.52-1.04-6.79l0,0.16
				c-0.01-0.05-0.01-0.11-0.02-0.16l0.01-0.1c0-0.01-0.01-0.01-0.01-0.01h0c0,0-0.01,0-0.01,0.01c-0.41-3.23-0.62-5.91-0.67-8.43
				c-0.04-2.57-0.16-4.86-0.36-7.02c-0.5-5.29-1.47-10.21-2.89-14.63c-1.56-4.85-3.66-9.06-6.24-12.52
				c-1.43-1.93-3.04-3.65-4.76-5.12c-1.83-1.55-3.85-2.86-5.99-3.88c-0.19-0.09-0.36-0.14-0.53-0.14c-0.08,0-0.17,0.01-0.25,0.03
				c-0.11,0.03-0.21,0.08-0.3,0.14c-0.15-0.13-0.35-0.2-0.55-0.21C141.53,174.49,140.98,174.47,140.42,174.47"/>
			<path class="st3" d="M125.62,177.89c-2.79,1.12-5.5,2.42-7.84,3.56l-0.98,0.47c-1.99,0.96-3.96,1.92-5.96,2.88
				c-3.66,1.74-7.29,3.71-10.78,5.86c-4.01,2.46-7.67,5.08-10.87,7.78c-3.63,3.06-6.54,6.13-8.93,9.39
				c-2.57,3.53-4.29,7.14-5.12,10.73c-0.24,1.02-0.4,2.05-0.49,3.08c0.25,0.97,0.49,1.95,0.75,2.92c0.45,1.67,0.94,3.32,1.52,4.96v0
				c0,0,0-0.01,0-0.01c0,0,0,0.01,0,0.01c0.37,1.04,0.78,2.07,1.24,3.07c0.43,0.93,0.91,1.84,1.48,2.69
				c0.41,0.58,0.86,1.14,1.4,1.61c-0.02-0.01-0.04-0.03-0.05-0.04c0.29,0.24,0.59,0.46,0.93,0.63c-0.02-0.01-0.04-0.02-0.06-0.03
				c0.25,0.12,0.51,0.21,0.78,0.27c0.24,0.04,0.48,0.05,0.73,0.03c-0.02,0-0.04,0-0.06,0.01c0.25-0.02,0.49-0.07,0.73-0.14
				c0,0,0.01,0,0.01-0.01c0,0-0.01,0-0.01,0c0,0,0.01,0,0.01,0c0.26-0.1,0.5-0.22,0.74-0.38c0.24-0.18,0.46-0.37,0.66-0.59
				c0.01-0.01,0.01-0.02,0.02-0.02c0,0,0,0,0,0c0-0.01,0.01-0.01,0.01-0.02c0,0,0,0,0,0.01c0.38-0.45,0.69-0.94,0.94-1.47
				c-0.01,0.02-0.02,0.04-0.03,0.06c0.64-1.32,1.01-2.76,1.28-4.2c0,0.02-0.01,0.04-0.01,0.07c0.07-0.38,0.13-0.76,0.19-1.15
				c0.01-0.06,0.03-0.11,0.07-0.16c0.04-0.07,0.13-0.12,0.22-0.13c1.65-0.11,3.3-0.07,4.94-0.26h-0.01h0.02c0,0,0.01,0,0.01,0
				c0,0,0,0,0,0c0,0,0.01,0,0.01,0c2.5-0.32,4.97-0.81,7.4-1.46c2.39-0.64,4.74-1.43,7.04-2.34h-0.01c2.94-1.18,5.8-2.56,8.54-4.14
				c2.7-1.54,5.29-3.25,7.77-5.12c-0.01,0-0.01,0.01-0.02,0.01c5.23-3.95,9.99-8.55,14-13.75c-0.01,0.02-0.03,0.04-0.04,0.06
				c2.89-3.75,5.38-7.82,7.19-12.2l-0.02,0.06c0.64-1.56,1.2-3.16,1.65-4.79c0.45-1.63,0.79-3.27,1.02-4.94c0,0.01,0,0.03,0,0.05
				c0.16-1.2,0.26-2.42,0.29-3.64c-1.32-0.95-2.73-1.77-4.18-2.47c-0.2-0.1-0.37-0.15-0.54-0.15c-0.07,0-0.16,0.01-0.25,0.04
				c-0.11,0.03-0.21,0.08-0.31,0.14c-0.13-0.13-0.32-0.2-0.54-0.22c-0.56-0.04-1.11-0.06-1.67-0.06
				C136.08,174.44,131.51,175.51,125.62,177.89 M76.91,229.45c0.01,0.01,0.01,0.03,0.02,0.05
				C76.92,229.48,76.92,229.47,76.91,229.45 M79.62,235.23c0,0.01,0.01,0.02,0.02,0.02C79.63,235.25,79.63,235.24,79.62,235.23"/>
			<polyline class="st3" points="93.08,229.36 93.09,229.36 93.08,229.36 			"/>
			<path class="st3" d="M85.47,236.61c0,0,0.01-0.01,0.01-0.01C85.47,236.61,85.47,236.61,85.47,236.61"/>
			<path class="st3" d="M93.08,229.36L93.08,229.36L93.08,229.36z"/>
			<polyline class="st3" points="93.08,229.36 93.08,229.36 93.08,229.36 93.08,229.36 			"/>
			<path class="st5" d="M71.11,239.05c-0.68,1.63-1.01,3.4-1.06,5.15c-0.06,1.83,0.2,3.67,0.7,5.43c0.49,1.76,1.27,3.42,2.27,4.94
				c0.97,1.48,2.21,2.79,3.67,3.81c0.24,0.16,0.57,0.11,0.74-0.13c0.17-0.24,0.11-0.58-0.13-0.74c-0.4-0.28-0.77-0.58-1.13-0.91
				c0.01,0.01,0.03,0.03,0.04,0.04c-0.02-0.01-0.03-0.03-0.04-0.04c-0.02-0.02-0.04-0.03-0.06-0.05c0.02,0.02,0.04,0.03,0.05,0.05
				c-0.74-0.7-1.4-1.49-1.97-2.35c-0.77-1.21-1.36-2.5-1.79-3.85c-0.43-1.41-0.71-2.86-0.8-4.34c-0.07-1.46,0.03-2.93,0.34-4.36
				c0.17-0.71,0.39-1.41,0.67-2.09c0.16-0.4-0.07-0.88-0.47-1.02c-0.09-0.03-0.18-0.05-0.27-0.05
				C71.54,238.53,71.24,238.74,71.11,239.05 M72.42,250.47c0.01,0.03,0.02,0.05,0.03,0.08C72.43,250.52,72.43,250.5,72.42,250.47
				 M74.12,254.15c0.02,0.03,0.04,0.06,0.06,0.1C74.17,254.21,74.14,254.18,74.12,254.15 M76.16,256.6L76.16,256.6
				C76.16,256.6,76.16,256.6,76.16,256.6C76.15,256.6,76.16,256.6,76.16,256.6"/>
			<path class="st5" d="M66.62,236.88c-0.97,0.1-1.92,0.39-2.81,0.79c-0.92,0.41-1.78,0.97-2.51,1.66c-0.1,0.09-0.14,0.23-0.06,0.35
				c0.07,0.1,0.25,0.15,0.35,0.05c0.41-0.39,0.86-0.72,1.35-0.99c0.5-0.27,1.03-0.47,1.58-0.62c0.72-0.17,1.46-0.24,2.2-0.24
				c0.67,0.03,1.33,0.12,1.98,0.29c0.79,0.24,1.54,0.57,2.25,0.98c0.16,0.1,0.31,0.2,0.47,0.3c0.18,0.11,0.35,0.18,0.56,0.16
				c0.2-0.02,0.39-0.13,0.51-0.28c0.25-0.32,0.21-0.82-0.12-1.07c-1.34-1.01-3.02-1.43-4.69-1.43
				C67.32,236.82,66.97,236.84,66.62,236.88 M62.93,238.74C62.93,238.74,62.93,238.74,62.93,238.74
				C62.93,238.74,62.93,238.74,62.93,238.74"/>
			<path class="st6" d="M106.8,243.1c1.46-0.14,2.39-2.85,2.08-6.04c-0.31-3.19-1.75-5.67-3.21-5.53c-1.46,0.14-2.39,2.85-2.08,6.04
				C103.9,240.76,105.34,243.24,106.8,243.1"/>
			<path class="st6" d="M150.33,237.51c1.46-0.14,2.39-2.85,2.08-6.04c-0.31-3.19-1.75-5.67-3.21-5.53
				c-1.46,0.14-2.39,2.85-2.08,6.04C147.43,235.18,148.87,237.66,150.33,237.51"/>
			<path class="st6" d="M141.87,202.15c-0.34,1.46,2.77,3.42,6.93,4.39s7.82,0.57,8.15-0.89c0.34-1.46-2.77-3.42-6.93-4.39
				C145.86,200.3,142.21,200.7,141.87,202.15"/>
			<path class="st7" d="M132.37,225.91c-0.15,0-0.25,0.11-0.27,0.27c-0.27,2.67-0.21,5.2,0.16,7.53c0.22,1.33,0.54,2.55,0.97,3.63
				c0.26,0.64,0.53,1.21,0.83,1.75c0.28,0.5,0.65,1.02,1.13,1.58c0.15,0.17,0.4,0.23,0.57,0.23c0.2,0,0.41-0.09,0.56-0.23
				c0.15-0.15,0.23-0.36,0.23-0.56c0-0.2-0.08-0.39-0.23-0.56c-0.2-0.23-0.4-0.46-0.59-0.7c-0.36-0.47-0.69-0.96-1.01-1.5
				c-0.27-0.47-0.54-1.01-0.82-1.66c-0.58-1.42-0.98-2.96-1.2-4.55c-0.21-1.61-0.23-3.28-0.06-4.96c0-0.06-0.02-0.13-0.06-0.18
				C132.52,225.94,132.44,225.91,132.37,225.91"/>
			<path class="st2" d="M267.08,256.49c-0.04,0-0.09,0-0.13,0c-0.47,0.03-0.89,0.14-1.29,0.36c-0.36,0.19-0.73,0.48-1.09,0.86
				c-0.61,0.63-1.15,1.42-1.71,2.49c-1.19,2.24-2,4.64-2.63,6.7c-0.93,3-1.65,6.13-2.3,9.07l-0.31,1.38
				c-0.41,1.84-0.82,3.69-1.27,5.52c-0.02,0.08-0.04,0.17-0.04,0.24c-0.05,0.02-0.1,0.05-0.16,0.08c-0.6,0.35-1.13,0.81-1.62,1.41
				c-0.75,0.9-1.21,2.12-1.4,3.74c-0.19,1.49-0.03,2.98,0.14,4.25c0.19,1.32,0.48,2.69,0.95,4.43c0.38,1.43,0.84,2.86,1.23,4.12
				c0.41,1.29,0.81,2.56,1.16,3.82c-1.71,6.24-3.74,11.79-6.22,16.96l-0.24,0.49l-0.24,0.49c-0.14,0.27-0.21,0.49-0.15,0.78
				c0.06,0.26,0.22,0.49,0.44,0.63c0.16,0.11,0.36,0.17,0.56,0.17c0.08,0,0.15-0.01,0.22-0.02c0.15-0.04,0.37-0.13,0.52-0.29
				c0.23,0.63,0.54,1.3,0.9,1.98c0.57,1.08,1.31,2.23,2.32,3.61c0.75,1.02,1.6,2.06,2.66,3.27c0.31,0.36,0.64,0.71,0.96,1.07
				l0.2,0.22c0.43,0.47,0.85,0.93,1.26,1.41c0.44,0.5,0.84,1.02,1.26,1.55l0.39,0.5c0.66,0.84,1.33,1.69,2.02,2.51
				c0.77,0.92,1.5,1.72,2.23,2.44c0.86,0.83,1.64,1.46,2.39,1.94c0.51,0.33,1.04,0.57,1.57,0.74c0.44,0.13,0.91,0.2,1.4,0.2
				c0.31,0,0.64-0.03,0.96-0.08c0.67-0.11,1.36-0.44,2.05-0.98l-0.3,1.51l-0.24,1.31l-0.13,0.69l-0.13,0.7
				c-0.06,0.3-0.07,0.54,0.06,0.78c0.12,0.23,0.34,0.42,0.58,0.51c0.11,0.03,0.21,0.05,0.32,0.05c0.17,0,0.33-0.04,0.47-0.12
				c0.21-0.1,0.45-0.34,0.5-0.58c2.53-12.82,3.55-25.73,4.27-37.77l0.03-0.5l0.03-0.5c0.04-0.04,0.08-0.08,0.13-0.12
				c2.37-2.17,4.32-5.03,5.87-8.58c0.72-1.65,1.27-3.35,1.64-5.07c0.39-1.84,0.55-3.48,0.47-5.02c0-0.07-0.01-0.13-0.02-0.2
				c0.22-0.25,0.43-0.52,0.63-0.79c0.46-0.63,0.88-1.33,1.26-2.1c0.41-0.84,0.71-1.62,0.92-2.38c0.48-1.8,0.41-3.31-0.2-4.5
				c-0.32-0.64-0.87-1.19-1.51-1.53c-0.66-0.36-1.45-0.55-2.33-0.58c0.02-0.21,0.01-0.44-0.01-0.67c-0.07-0.86-0.19-1.55-0.39-2.17
				c-0.34-1.04-1.02-2.43-2.35-3.13c-0.65-0.34-1.34-0.51-2.05-0.51c-0.1,0-0.21,0-0.31,0.01c-0.8,0.05-1.61,0.26-2.48,0.64
				c-0.01-0.09-0.06-0.19-0.1-0.28c-0.34-0.7-0.83-1.41-1.45-2.09c-0.64-0.69-1.38-1.23-2.2-1.6c-0.45-0.2-0.94-0.31-1.43-0.31
				c-0.36,0-0.7,0.05-1,0.16c-0.27,0.1-0.53,0.22-0.79,0.39c0.1-1.46,0.12-2.82,0.06-4.13c-0.07-1.64-0.26-3.8-1.02-5.85
				c-0.34-0.92-0.82-1.75-1.42-2.46C268.78,256.96,267.9,256.49,267.08,256.49"/>
			<path class="st5" d="M259.15,282.15c-1.15,0.05-2.23,0.5-3.19,1.12c-0.07,0.05-0.1,0.13-0.1,0.21c0.13-0.07,0.27-0.14,0.4-0.2
				c0.15-0.06,0.3-0.11,0.45-0.17c0.48-0.16,0.98-0.25,1.48-0.27c0.37-0.07,0.74-0.11,1.12-0.11c0.59,0.01,1.15,0.1,1.71,0.25
				c1.32,0.38,2.53,1.03,3.73,1.68c0.61,0.33,1.22,0.65,1.84,0.96c0.41,0.2,0.82,0.38,1.25,0.52c0.77,0.27,1.57,0.48,2.36,0.72
				c0.74,0.23,1.48,0.49,2.16,0.88c0.18,0.12,0.35,0.25,0.51,0.39c0.07,0.07,0.13,0.15,0.18,0.23c0.03,0.06,0.06,0.13,0.08,0.2
				c0.01,0.06,0.02,0.12,0.02,0.18c0,0.09-0.02,0.19-0.04,0.29c-0.07,0.2-0.16,0.4-0.26,0.59c-0.3,0.49-0.67,0.95-1.07,1.36
				c-0.39,0.36-0.81,0.66-1.26,0.93c-0.77,0.43-1.6,0.73-2.45,0.97c-0.06,0.02-0.12,0.04-0.18,0.05c0.06-0.02,0.12-0.04,0.18-0.05
				c-0.61,0.16-1.23,0.3-1.87,0.38c-0.59,0.08-1.19,0.11-1.79,0.12c-0.95-0.01-1.91-0.12-2.83-0.38c-0.21-0.05-0.45,0.12-0.52,0.3
				c-0.11,0.25,0.02,0.55,0.27,0.65c0.91,0.39,1.91,0.55,2.89,0.62c1.12,0.08,2.27,0.01,3.38-0.15c1.11-0.16,2.21-0.48,3.23-0.94
				c0.47-0.21,0.93-0.47,1.36-0.75c0.46-0.31,0.86-0.7,1.24-1.11c0.37-0.39,0.67-0.83,0.95-1.3c0.22-0.37,0.36-0.8,0.43-1.22
				c0.06-0.39,0-0.75-0.12-1.13c-0.05-0.17-0.15-0.33-0.24-0.48c-0.11-0.18-0.25-0.32-0.39-0.46c-0.25-0.25-0.53-0.42-0.83-0.59
				c-0.32-0.19-0.67-0.32-1.02-0.45c-0.79-0.28-1.6-0.48-2.41-0.67c-0.57-0.14-1.15-0.26-1.71-0.41c0.03,0.01,0.05,0.02,0.09,0.03
				c-0.9-0.26-1.76-0.61-2.61-0.99c-1.07-0.48-2.15-0.95-3.26-1.32c-0.93-0.31-1.88-0.5-2.86-0.5
				C259.36,282.15,259.26,282.15,259.15,282.15 M272.84,289.67c-0.02,0.04-0.04,0.07-0.05,0.1
				C272.8,289.74,272.82,289.71,272.84,289.67"/>
			<path class="st5" d="M278.46,273.37c0.04,0.38,0.05,0.77,0.04,1.16c-0.01,0.25-0.02,0.5-0.04,0.75c0.01,0.19,0.01,0.37,0.01,0.56
				c-0.01,1.5-0.21,2.98-0.6,4.43c-0.3,1.07-0.72,2.12-1.28,3.09c0.02-0.04,0.04-0.07,0.07-0.11c-0.38,0.65-0.82,1.24-1.35,1.78
				c-0.38,0.38-0.8,0.71-1.27,0.99c-0.28,0.15-0.57,0.29-0.87,0.41c-0.33,0.13-0.49,0.53-0.35,0.85c0.14,0.33,0.52,0.49,0.85,0.35
				c1.22-0.49,2.23-1.38,2.99-2.44c0.79-1.11,1.32-2.41,1.67-3.71c0.37-1.36,0.58-2.75,0.65-4.16c0.04-0.85,0.02-1.71-0.06-2.55
				c-0.01-0.05-0.03-0.1-0.04-0.15c-0.09-0.33-0.2-0.65-0.32-0.96C278.54,273.56,278.5,273.46,278.46,273.37
				C278.46,273.37,278.46,273.37,278.46,273.37"/>
			<path class="st5" d="M286.11,278.8c-0.04,0.27-0.1,0.53-0.15,0.8c-0.05,0.22-0.1,0.44-0.15,0.65c-0.07,0.44-0.14,0.88-0.21,1.33
				c-0.01,0.05-0.04,0.09-0.08,0.13c-0.05,0.24-0.11,0.48-0.18,0.72c0.01-0.03,0.02-0.05,0.02-0.07c-0.25,0.86-0.57,1.7-1.02,2.48
				c-0.31,0.5-0.66,0.95-1.07,1.36c-0.32,0.31-0.67,0.59-1.05,0.83c-0.47,0.27-0.96,0.47-1.48,0.62c-0.54,0.14-1.09,0.22-1.65,0.24
				c-0.37-0.01-0.73-0.05-1.09-0.14c-0.27-0.08-0.52-0.19-0.77-0.32c-0.17-0.11-0.33-0.23-0.48-0.37l-0.02-0.02
				c-0.12-0.13-0.22-0.27-0.31-0.41c-0.1-0.2-0.18-0.41-0.25-0.62c-0.07-0.2-0.31-0.32-0.52-0.29c-0.25,0.03-0.46,0.29-0.41,0.55
				c0.04,0.19,0.08,0.37,0.14,0.55c0.07,0.22,0.2,0.43,0.33,0.62c0.21,0.32,0.51,0.59,0.81,0.82c0.61,0.44,1.37,0.64,2.11,0.69
				c0.78,0.05,1.55-0.09,2.29-0.31c0.7-0.21,1.36-0.55,1.95-0.98c0.32-0.24,0.61-0.52,0.89-0.81c0.3-0.31,0.55-0.66,0.78-1.01
				c0.46-0.7,0.8-1.48,1.06-2.27c0.32-0.99,0.53-2,0.66-3.04c0.01-0.31,0.01-0.62,0-0.93c-0.01-0.45-0.04-0.89-0.07-1.34
				C286.17,278.43,286.14,278.61,286.11,278.8"/>
			<path class="st5" d="M276.75,287.04c0,0-0.01-0.01-0.01-0.01C276.74,287.03,276.74,287.03,276.75,287.04"/>
			<path class="st5" d="M281.39,288.07c-0.09,0.49-0.1,0.99-0.01,1.48c0.09,0.48,0.3,0.93,0.57,1.34c0.13,0.18,0.28,0.35,0.44,0.5
				c0.17,0.17,0.36,0.31,0.56,0.44c0.19,0.12,0.38,0.22,0.58,0.31c0.23,0.1,0.47,0.17,0.71,0.23c0.44,0.11,0.91,0.13,1.36,0.1
				c0.45-0.04,0.9-0.16,1.31-0.35c0.41-0.18,0.79-0.45,1.1-0.77c0.35-0.36,0.62-0.78,0.82-1.23c0.02-0.04,0.02-0.09,0.02-0.13
				c-0.07,0.06-0.13,0.11-0.2,0.16c-0.04,0.03-0.07,0.07-0.11,0.1c-0.23,0.21-0.47,0.42-0.73,0.59c-0.05,0.03-0.1,0.07-0.14,0.1
				c-0.17,0.15-0.35,0.29-0.54,0.4c-0.21,0.11-0.43,0.2-0.66,0.27c-0.3,0.08-0.59,0.11-0.9,0.12c-0.34-0.01-0.67-0.05-1-0.14
				c-0.28-0.09-0.55-0.2-0.81-0.34c-0.25-0.16-0.48-0.34-0.7-0.55c-0.17-0.18-0.32-0.38-0.45-0.59c-0.12-0.22-0.21-0.45-0.29-0.7
				c-0.06-0.27-0.09-0.55-0.1-0.82c0-0.14,0.01-0.28,0.03-0.41c0.02-0.24-0.13-0.46-0.38-0.5c-0.02,0-0.04-0.01-0.06-0.01
				C281.61,287.68,281.43,287.85,281.39,288.07"/>
			<path class="st5" d="M271.4,270.22c-0.24,0.9-0.5,1.78-0.73,2.68c-0.04,0.2-0.08,0.4-0.12,0.6c0,0.02-0.01,0.03-0.01,0.05
				c0,0.01,0,0.02-0.01,0.03c-0.16,0.75-0.35,1.49-0.55,2.22v0c0,0.01,0,0.02-0.01,0.03c0,0,0,0.01,0,0.01v0
				c-0.2,0.73-0.41,1.45-0.64,2.17c-0.24,0.73-0.5,1.44-0.77,2.16c-0.53,1.41-1.14,2.78-1.79,4.13c-0.11,0.23,0.02,0.53,0.25,0.63
				c0.12,0.05,0.25,0.05,0.37,0c0.12-0.05,0.2-0.14,0.25-0.25c1.36-2.63,2.23-5.48,2.92-8.34c0.46-1.92,0.82-3.86,1.08-5.82
				c0.05-0.63,0.09-1.27,0.13-1.9C271.67,269.14,271.54,269.68,271.4,270.22"/>
			<path class="st5" d="M269.97,275.83c0-0.01,0-0.01,0-0.01l0.01-0.02C269.97,275.81,269.97,275.82,269.97,275.83"/>
			<path class="st3" d="M274.57,292.24c-0.23,0.06-0.41,0.33-0.32,0.57c0.31,0.84,0.53,1.69,0.67,2.57c0.13,1,0.15,2.01,0.02,3.01
				c-0.11,0.67-0.28,1.3-0.53,1.93c-0.22,0.49-0.48,0.96-0.8,1.39c-0.15,0.21-0.17,0.53-0.1,0.76c0.07,0.25,0.24,0.47,0.46,0.6
				c0.45,0.26,1.12,0.13,1.36-0.36c0.38-0.75,0.66-1.55,0.81-2.38c0.16-0.88,0.19-1.78,0.15-2.67c-0.09-1.75-0.54-3.48-1.15-5.11
				c-0.08-0.2-0.24-0.34-0.45-0.34C274.66,292.22,274.62,292.22,274.57,292.24 M274.96,298.26c0,0.03-0.01,0.07-0.02,0.1
				C274.95,298.33,274.95,298.29,274.96,298.26 M274.37,300.41c-0.01,0.02-0.02,0.04-0.03,0.06
				C274.36,300.45,274.37,300.43,274.37,300.41"/>
			<path class="st8" d="M249.5,317.87c-0.14,0-0.28,0-0.42,0.01c-0.65,0.05-1.25,0.2-1.84,0.47c-1,0.44-1.85,1.33-2.41,2.5
				c-0.35,0.73-0.6,1.57-0.76,2.49c-0.11,0.66,0.24,1.25,0.85,1.4c0.09,0.02,0.18,0.04,0.26,0.04c0.48,0,1.04-0.33,1.14-0.89
				c0.05-0.3,0.11-0.6,0.19-0.89c0.14,1.04,0.39,2.11,0.74,3.28c0.45,1.49,1.02,3.01,1.79,4.77c1.18,2.69,2.72,5.49,4.85,8.82
				c1.02,1.6,2.11,3.19,3.13,4.68l0.42,0.61c0.8,1.16,1.86,2.69,2.98,4.18c2.3,3.07,4.86,6.23,8.06,8.57c0.69,0.5,1.35,0.9,2.02,1.2
				c0.77,0.36,1.54,0.57,2.35,0.66c0.17,0.02,0.34,0.03,0.51,0.03c0.52,0,1.05-0.09,1.52-0.26c0.74-0.26,1.42-0.69,2.03-1.3
				c0.57-0.57,1.09-1.33,1.54-2.28c0.23-0.47,0.45-1.01,0.67-1.64c0.22-0.65,0.37-1.36,0.47-2.29c0.13-1.36,0.05-2.84-0.27-4.53
				c-0.26-1.38-0.7-2.81-1.34-4.38c-0.55-1.35-1.22-2.7-1.97-3.99c-0.2-0.35-0.42-0.68-0.66-1.02c-0.65-0.87-1.36-1.72-1.98-2.43
				c-1.89-2.2-3.97-4.39-6.36-6.72c-2.9-2.81-5.61-5.11-8.28-7.04c-1.42-1.03-2.74-1.85-4.02-2.51c-1.43-0.74-2.64-1.18-3.82-1.39
				C250.38,317.91,249.93,317.87,249.5,317.87"/>
			<path class="st8" d="M138.4,301.76c-0.51,0-0.96,0.42-1,0.94c-0.03,0.39,0.18,0.76,0.52,0.95c-0.19,4.36,0.31,8.72,0.87,12.79
				c0.16,1.19,0.34,2.38,0.52,3.57c0.14,0.95,0.28,1.91,0.42,2.86c0.31,2.18,0.54,4.33,0.76,6.34c1.1,10.12,2.46,18.42,4.3,26.13
				c1.96,8.26,4.4,15.39,7.45,21.8c3.21,6.74,7.25,12.73,12.02,17.82c2.33,2.49,5,4.89,8.16,7.33c2.69,2.08,5.67,4.11,8.86,6.03
				c6.48,3.89,13.33,6.96,20.33,9.13c7.19,2.22,14.24,3.35,20.97,3.35l0.7,0c3.64-0.04,7.2-0.44,10.59-1.17
				c3.26-0.71,6.57-1.8,9.82-3.23c5.99-2.64,11.72-6.62,16.58-11.5c2.35-2.36,4.54-4.99,6.53-7.81c1.87-2.68,3.59-5.65,5.1-8.84
				c1.66-3.5,2.91-7.04,3.72-10.51c0.91-3.89,1.28-7.79,1.09-11.61c-0.09-1.92-0.33-3.84-0.7-5.7c-0.35-1.78-0.86-3.61-1.55-5.58
				c-1.25-3.55-3.15-7.13-5.66-10.64c-0.92-1.29-1.81-2.61-2.71-3.93c-0.48-0.71-0.96-1.43-1.45-2.14
				c-1.95-2.84-3.52-4.96-5.07-6.87c-2.02-2.46-3.97-4.45-5.98-6.09c-2.22-1.81-4.48-3.03-6.72-3.65c-1.1-0.3-2.2-0.45-3.27-0.45
				c-0.13,0-0.26,0-0.4,0.01c-0.67,0.03-1.28,0.09-1.87,0.2c-0.6,0.11-1.23,0.28-2.04,0.57c-1.45,0.51-2.76,1.34-3.97,2.16
				c-1.26,0.85-2.54,1.85-3.89,3.04c-2.75,2.42-5.14,5.18-6.91,7.3c-1.48,1.77-2.92,3.61-4.32,5.39c-0.67,0.86-1.35,1.72-2.03,2.57
				c-1.47,1.86-2.8,3.45-4.05,4.87c-3.23,3.63-6.33,6.4-9.49,8.48l-0.72,0.45c-0.09-0.08-0.19-0.15-0.3-0.19
				c-0.41-0.17-0.8-0.35-1.2-0.54c-2.5-1.26-4.95-2.99-7.7-5.44l0.19,0.19c-3.94-3.54-7.48-7.61-10.48-11.15
				c-0.85-1-1.69-2.01-2.53-3.01c-2.2-2.64-4.48-5.37-6.87-7.92c-0.41-0.44-0.83-0.87-1.24-1.3c-0.34-0.35-0.68-0.71-1.02-1.06
				c-0.64-0.67-1.27-1.34-1.9-2.01l-0.49-0.52c-1.76-1.88-3.36-3.58-5.01-5.28c-2.88-2.95-6.75-6.74-11.22-9.88
				c-2.44-1.72-4.96-3.13-7.49-4.19c-2.65-1.11-5.4-1.79-8.18-2.04C138.48,301.77,138.4,301.76,138.4,301.76"/>
			<path class="st8" d="M139.19,319.31l0.1,0.69c0.14,0.95,0.28,1.91,0.42,2.86c0.31,2.2,0.55,4.43,0.76,6.34
				c1.1,10.1,2.46,18.41,4.3,26.15c1.96,8.25,4.4,15.39,7.45,21.8c3.2,6.73,7.25,12.73,12.03,17.82c2.33,2.49,5,4.89,8.16,7.33
				c2.7,2.09,5.68,4.12,8.86,6.03c6.49,3.9,13.33,6.96,20.34,9.13c7.2,2.23,14.25,3.36,20.98,3.36l0.7,0
				c3.63-0.05,7.19-0.45,10.59-1.18c3.27-0.72,6.58-1.8,9.82-3.24c5.98-2.64,11.72-6.61,16.59-11.5c2.36-2.36,4.55-5,6.53-7.82
				c1.87-2.66,3.58-5.64,5.1-8.84c1.66-3.5,2.91-7.04,3.72-10.51c0.91-3.89,1.28-7.8,1.09-11.62c-0.09-1.92-0.33-3.84-0.7-5.7
				c-0.35-1.8-0.86-3.63-1.56-5.58c-0.71-2-1.62-4.01-2.73-6.01c0.06,0.52,0.11,1.04,0.15,1.55c0.24,3.08,0.2,6.17-0.14,9.24
				c-0.33,3.05-0.92,6.08-1.77,9.03c-0.85,2.97-1.94,5.87-3.27,8.66c-1.34,2.83-2.9,5.54-4.7,8.11c-1.75,2.51-3.71,4.89-5.86,7.07
				c-2.14,2.16-4.46,4.14-6.97,5.86c-1.26,0.87-2.56,1.68-3.9,2.42c-1.34,0.73-2.72,1.41-4.13,2c-1.38,0.58-2.79,1.09-4.23,1.52
				c-1.49,0.44-3,0.79-4.52,1.09c-2.87,0.56-5.77,0.96-8.69,1.13c-2.75,0.16-5.52,0.14-8.27-0.1c-2.58-0.23-5.15-0.63-7.68-1.23
				c-2.48-0.59-4.92-1.35-7.29-2.3c-2.32-0.93-4.58-2-6.75-3.22c-4.43-2.49-8.54-5.54-12.3-8.96c-3.94-3.58-7.52-7.53-10.79-11.72
				c-3.39-4.33-6.48-8.89-9.34-13.58c-5.85-9.63-10.78-19.8-15.29-30.11c-0.88-2.01-1.75-4.03-2.6-6.06
				c-0.01-0.02-0.02-0.04-0.02-0.05c-1.22-2.9-2.42-5.8-3.6-8.71c-0.24-0.58-0.47-1.16-0.71-1.74L139.19,319.31z"/>
			<path class="st8" d="M143.66,311.19c-0.1,0-0.21,0.02-0.32,0.06c-0.25,0.08-0.46,0.27-0.58,0.5c-0.12,0.24-0.14,0.49-0.06,0.8
				c1.28,5.11,2.75,10.3,4.49,15.85c0.44,4.54,0.44,9.57,0,15.38l0.07-0.13l0.02-0.14c-0.52,5.82-1.37,11.7-2.18,17.38l-0.02,0.16
				l-0.02,0.15l-0.07,0.49c-0.9,6.17-1.67,11.75-2.07,17.47c-0.18,2.58-0.27,5.13-0.37,7.6l-0.03,0.93
				c-0.11,2.79-0.2,5.72-0.26,8.71c-0.13,6.2-0.11,12.01,0.05,17.75c0.37,13.07,1.52,24.72,3.54,35.61
				c2.28,12.34,5.74,23.59,10.28,33.43c0.51,1.12,1.08,2.29,1.77,3.67c0.4,0.8,0.81,1.59,1.27,2.36c0.64,1.07,1.4,2.16,2.47,3.55
				c2.1,2.69,4.6,5.36,7.43,7.93c3.06,2.78,6.23,5.11,9.4,6.94c1.65,0.95,3.31,1.73,4.93,2.32c1.72,0.64,3.33,1.04,4.9,1.22
				c0.62,0.06,1.2,0.1,1.73,0.1c0.2,0,0.39,0,0.59-0.01c0.75-0.03,1.52-0.14,2.42-0.34c1.45-0.33,2.9-1.01,4.19-1.98
				c1.3-0.96,2.45-2.26,3.54-3.98c1.07-1.67,1.83-3.49,2.25-5.42c0.38-1.75,0.48-3.71,0.3-6c-0.15-1.94-0.53-4.01-1.19-6.5
				c-1.25-4.73-3.2-9.27-5.12-13.48c-0.87-1.89-1.77-3.76-2.67-5.63c-1.02-2.13-2.08-4.33-3.09-6.57c-0.37-0.82-0.72-1.64-1.06-2.48
				c-0.4-0.98-0.76-2.02-1.09-2.93l-0.18-0.52c-1.07-3.03-2.15-6.2-3.3-9.69c-3.72-11.38-7.31-23.91-11.27-39.42l-0.66-2.59
				l-0.33-1.3c-0.49-1.98-0.99-3.96-1.5-5.93c-0.78-2.96-1.63-5.99-2.68-9.53c-1.64-5.46-3.58-11.43-6.12-18.78
				c-1.47-4.25-2.97-8.49-4.48-12.73c-2.85-8.02-5.79-16.32-8.43-24.58c-0.3-0.93-0.59-1.86-0.89-2.79
				c-0.52-5.08-1.65-9.8-3.37-14.05c-0.15-0.39-0.49-0.65-0.87-0.7c-0.08-0.41-0.19-0.84-0.3-1.27l-0.05-0.19
				C144.54,311.43,144.07,311.19,143.66,311.19"/>
			<path class="st9" d="M83.07,299.81c-0.13,0-0.24,0.02-0.36,0.06c-0.05-0.02-0.12-0.03-0.21-0.03c-0.11,0-0.23,0.02-0.4,0.07
				c-6.7,2.08-11.7,3.98-16.21,6.16c-0.29,0.14-0.47,0.32-0.57,0.56c-0.11,0.24-0.11,0.53-0.01,0.78c0.04,0.11,0.1,0.21,0.18,0.3
				c0.02,0.1,0.06,0.21,0.12,0.32c0.83,1.71,1.66,3.55,2.48,5.45c2.13,5.05,3.95,10.31,5.4,15.61c1.39,5.12,2.48,10.52,3.23,16.05
				c0.93,7.07,1.33,14.51,1.2,22.12c-0.12,6.97-0.7,14.33-1.8,22.49l0.07-0.12c-1.54,10.86-3.86,22.42-7.3,36.37
				c-0.81,3.28-1.5,5.97-2.15,8.46c-0.48,1.8-1,3.61-1.45,5.14l-0.79,2.7l-0.18,0.6c-0.79,2.69-1.69,5.75-2.48,8.72
				c-1.33,4.89-2.31,9.22-3.02,13.25c-0.86,4.92-1.26,9.24-1.24,13.21c0.02,4.45,0.65,8.48,1.88,11.96
				c0.65,1.85,1.49,3.58,2.51,5.15c1.04,1.6,2.32,3.09,3.83,4.43c3.41,3.04,7.91,5.38,13.38,6.95c5.13,1.48,10.37,2.08,15.3,2.56
				c1.19,0.12,2.39,0.23,3.59,0.33l0.79,0.07l0.59,0.06c0.86,0.08,1.71,0.16,2.57,0.25c3.26,0.32,6.5,0.58,9.63,0.75
				c3.22,0.17,6.4,0.26,9.44,0.26c3.43,0,6.81-0.11,10.06-0.33c3.75-0.26,7.52-0.7,11.52-1.34c3.66-0.6,7.17-1.33,10.43-2.17
				c3.57-0.92,6.93-2.05,10-3.34c3.49-1.47,6.48-3.12,9.13-5.04c0.14-0.1,0.24-0.19,0.31-0.29c0.09-0.04,0.19-0.11,0.28-0.2
				c0.18-0.18,0.27-0.4,0.3-0.73c0.46-5.92,0.28-12.37-0.55-19.18c-0.65-5.26-1.71-10.85-3.33-17.59
				c-0.88-3.65-1.85-7.34-2.79-10.91l-0.07-0.26l-0.07-0.26c-2-7.58-4.06-15.38-5.4-23.23c-0.26-1.51-0.46-2.83-0.64-4.16
				c-0.67-5.06-0.94-9.72-0.82-14.25c1.75-1.38,3.45-3.07,5.51-5.49c1.84-2.15,3.49-4.49,4.92-6.95c2.78-4.75,4.66-9.95,5.59-15.43
				c0.45-2.73,0.67-5.5,0.64-8.23c-0.04-2.69-0.33-5.49-0.86-8.31c-0.94-4.91-2.84-10.05-5.96-16.19
				c-3.6-7.06-8.08-13.7-12.42-20.12c-2.13-3.15-4.28-6.33-6.35-9.59c-3.59-5.65-6.23-10.46-8.3-15.14
				c-0.11-0.24-0.39-0.41-0.62-0.47c-0.05-0.02-0.11-0.03-0.17-0.04c-1.75-0.61-3.62-0.95-5.55-1.04l-0.13,0
				c-0.15,0-0.27,0.02-0.39,0.06c-0.12,0.02-0.25,0.06-0.36,0.13c-0.2,0.12-0.44,0.36-0.48,0.62c-0.56,3.98-1.46,7.43-2.76,10.54
				c-0.89,2.05-1.94,3.88-3.13,5.45l-0.07,0.11c-0.94,1.17-1.95,2.18-3.01,3.03c-0.96,0.73-1.94,1.31-3.01,1.79
				c-1.21,0.49-2.37,0.81-3.53,0.98c-0.74,0.1-1.52,0.15-2.33,0.15c-0.84,0-1.69-0.05-2.53-0.16c-2.26-0.32-4.58-0.98-7.09-2.03
				l0.07,0.09c-3.37-1.51-6.74-3.54-10.02-6.05c-3.79-2.93-7.1-6.21-9.85-9.74c-1.41-1.84-2.5-3.55-3.33-5.21
				C83.81,300,83.46,299.81,83.07,299.81"/>
			<path class="st10" d="M65.31,307.42c0.05,0.12,0.11,0.22,0.18,0.31c0.02,0.1,0.07,0.22,0.11,0.31c0.81,1.67,1.64,3.5,2.48,5.45
				c2.14,5.07,3.95,10.32,5.4,15.61c1.39,5.14,2.48,10.54,3.23,16.04c0.93,7.05,1.33,14.49,1.2,22.12c-0.12,7-0.71,14.36-1.8,22.48
				l0.11-0.1c-1.6,11.01-3.93,22.56-7.33,36.35c-0.81,3.28-1.5,5.97-2.15,8.46c-0.48,1.8-1,3.61-1.45,5.14l-0.79,2.7l-0.17,0.6
				c-0.75,2.54-1.68,5.71-2.48,8.72c-1.33,4.91-2.32,9.25-3.03,13.26c-0.86,4.93-1.27,9.25-1.24,13.21
				c0.02,4.45,0.65,8.48,1.88,11.97c0.65,1.85,1.5,3.59,2.52,5.15c1.03,1.59,2.31,3.08,3.83,4.43c3.42,3.05,7.93,5.39,13.39,6.95
				c5.14,1.49,10.38,2.08,15.31,2.57c1.2,0.12,2.4,0.23,3.59,0.33l0.79,0.07l0.59,0.06c0.86,0.08,1.71,0.16,2.57,0.25
				c3.24,0.32,6.47,0.57,9.63,0.75c3.24,0.18,6.42,0.26,9.44,0.26c3.38,0,6.76-0.11,10.05-0.33c1.8-0.13,3.58-0.29,5.39-0.5
				c-1.09-0.24-2.18-0.5-3.26-0.8c-2.72-0.74-5.41-1.62-8.01-2.71c-2.4-1-4.74-2.13-6.98-3.46c-1.31-0.78-2.59-1.6-3.83-2.49
				c-0.99-0.71-1.95-1.45-2.88-2.23c-2.05-1.71-3.98-3.57-5.75-5.58c-1.7-1.92-3.28-3.95-4.71-6.08c-1.48-2.21-2.83-4.5-4.02-6.87
				c-2.38-4.71-4.24-9.68-5.62-14.78c-0.81-2.99-1.48-6.02-1.99-9.08c-0.52-3.11-0.91-6.24-1.16-9.38c-0.26-3.24-0.4-6.48-0.44-9.73
				c-0.03-3.25,0.01-6.51,0.13-9.76c0.23-6.53,0.69-13.05,1.11-19.57c0.42-6.51,0.81-13.04,0.86-19.57
				c0.02-3.26-0.02-6.51-0.19-9.77c-0.09-1.69-0.2-3.38-0.36-5.07c-0.14-1.54-0.31-3.09-0.51-4.63v0.02v-0.02c0-0.01,0-0.01,0-0.02
				c0,0,0,0,0-0.01c0,0,0,0.01,0,0.01c0,0,0,0.01,0,0.01c-0.16-1.16-0.33-2.32-0.53-3.47c-0.15-0.9-0.32-1.8-0.48-2.7
				c-0.31-1.65-0.61-3.29-0.93-4.94c-0.66-3.39-1.36-6.78-2.14-10.14c-0.8-3.43-1.68-6.83-2.71-10.2c-0.52-1.68-1.06-3.35-1.66-5
				c-0.59-1.64-1.22-3.28-1.89-4.89c0.01,0.01,0.01,0.01,0.02,0.02c-1.14-2.7-2.41-5.35-3.86-7.9c-0.69-1.22-1.42-2.43-2.2-3.6
				c-0.76-1.15-1.56-2.27-2.4-3.36c-1.16-1.49-2.39-2.93-3.71-4.28c-0.39-0.4-0.79-0.8-1.2-1.19
				C65.21,307.03,65.23,307.23,65.31,307.42"/>
			<path class="st10" d="M82.87,401.07c-0.76,0.75-0.77,2.02-0.01,2.77c1.28,1.28,2.74,2.39,4.27,3.37c1.41,0.89,2.91,1.6,4.47,2.21
				c1.35,0.54,2.77,0.91,4.2,1.19c1.51,0.29,3.06,0.46,4.59,0.5c2.96,0.08,5.91-0.35,8.83-0.82c1.44-0.23,2.87-0.53,4.3-0.81
				c1.44-0.29,2.88-0.57,4.33-0.84c1.22-0.24,2.44-0.42,3.67-0.59c-0.01,0-0.02,0-0.03,0.01c1.53-0.21,3.07-0.35,4.61-0.39
				c1.54-0.04,3.07,0.05,4.6,0.25c-0.02,0-0.05-0.01-0.07-0.01c1.02,0.14,2.04,0.34,3.04,0.6c0.43,0.11,0.61-0.55,0.18-0.67
				c-5.76-1.5-11.77-1.4-17.67-0.99c-1.46,0.1-2.93,0.23-4.39,0.35c-1.45,0.11-2.91,0.2-4.36,0.27c-2.78,0.12-5.57,0.07-8.33-0.26
				c-2.23-0.3-4.4-0.84-6.49-1.68c-2-0.87-3.85-2-5.58-3.32c-0.46-0.36-0.92-0.74-1.37-1.11c-0.13-0.1-0.27-0.21-0.4-0.31
				c-0.31-0.18-0.65-0.27-1.01-0.27C83.73,400.5,83.23,400.71,82.87,401.07 M86.72,401.97c0.09,0.07,0.18,0.14,0.27,0.21
				C86.9,402.11,86.81,402.04,86.72,401.97 M87.02,402.2c0.04,0.03,0.08,0.06,0.11,0.09C87.1,402.26,87.06,402.23,87.02,402.2
				 M98.82,407.16c-0.05-0.01-0.11-0.02-0.17-0.02c0.14,0.02,0.28,0.04,0.42,0.05C98.99,407.18,98.91,407.17,98.82,407.16
				 M130.72,407.91c-0.01,0-0.02,0-0.03,0C130.7,407.91,130.71,407.91,130.72,407.91"/>
			<path class="st10" d="M82.85,298.9c-0.45,0.29-0.61,0.93-0.3,1.38c2.86,4.12,5.93,8.11,9.41,11.73
				c3.49,3.62,7.47,6.84,11.99,9.07c2.26,1.12,4.66,1.96,7.13,2.48c2.36,0.5,4.82,0.71,7.23,0.43c2.11-0.25,4.12-0.9,5.97-1.93
				c1.73-0.96,3.25-2.31,4.54-3.81c1.77-2.06,3.11-4.46,4.18-6.95c0.59-1.36,1.09-2.75,1.55-4.16c0.64-1.96,1.09-3.97,1.32-6.02
				c0.03-0.27,0.02-0.51-0.14-0.75c-0.15-0.22-0.37-0.38-0.63-0.44c-0.26-0.05-0.53,0-0.75,0.14c-0.2,0.13-0.41,0.38-0.43,0.63
				c-0.28,2.48-0.91,4.88-1.73,7.23c-0.9,2.52-2.02,4.98-3.5,7.2c-0.91,1.33-1.95,2.55-3.16,3.62c-0.97,0.81-2.02,1.5-3.15,2.05
				c-1.13,0.51-2.31,0.87-3.53,1.1c-1.48,0.23-2.97,0.27-4.46,0.15c0.06,0.01,0.12,0.01,0.19,0.02c-2.24-0.2-4.44-0.7-6.57-1.43
				c-2.54-0.92-4.94-2.18-7.19-3.68c-3.86-2.64-7.23-5.93-10.28-9.47c0.03,0.03,0.05,0.06,0.08,0.09c-2.28-2.67-4.38-5.49-6.38-8.38
				c-0.2-0.29-0.52-0.45-0.85-0.45C83.2,298.75,83.01,298.8,82.85,298.9 M100.62,316.83c0.06,0.04,0.11,0.07,0.16,0.11
				C100.73,316.9,100.68,316.86,100.62,316.83 M125.43,318.83c-0.03,0.02-0.06,0.05-0.09,0.07
				C125.37,318.88,125.4,318.86,125.43,318.83 M108.01,320.64c0.04,0.01,0.08,0.03,0.12,0.04
				C108.09,320.67,108.05,320.66,108.01,320.64 M90.54,307.49c-0.03-0.04-0.06-0.07-0.09-0.11
				C90.47,307.41,90.5,307.45,90.54,307.49"/>
			<path class="st8" d="M69.06,303.02c0,0-0.1,0.01-0.1,0.01c-1.25,0.22-2.48,0.52-3.64,0.89c-1.24,0.39-2.53,0.9-4.05,1.61
				c-2.38,1.1-4.79,2.46-7.58,4.29c-2.09,1.37-4.32,2.98-7.01,5.07c-2.58,2-4.52,3.59-6.31,5.17c-3.96,3.51-7.68,7.57-11.04,12.06
				c-2.99,3.99-5.78,8.52-8.31,13.46c-5.32,10.39-8.8,21.65-11.25,30.3c-2.07,7.31-3.73,14.18-5.1,21.02
				c-1.44,7.2-2.57,14.47-3.36,21.59c-0.88,7.93-1.32,15.65-1.31,22.93c0.01,8.1,0.58,15.46,1.74,22.49
				c1.26,7.66,3.14,14.34,5.76,20.42c1.37,3.17,2.95,6.17,4.71,8.92c1.76,2.75,3.81,5.36,6.11,7.76
				c4.57,4.79,10.36,8.64,16.75,11.13c2.52,0.98,5.26,1.81,8.14,2.45c1.37,0.3,2.82,0.56,4.44,0.8c2.06,0.3,3.77,0.46,5.39,0.51
				c0.29,0.01,0.58,0.01,0.87,0.01c1.7,0,3.48-0.15,5.46-0.45c2.13-0.33,4.35-0.87,6.6-1.6c1.9-0.61,3.85-1.42,5.97-2.46
				c1.96-0.96,3.88-2.13,5.71-3.46c0.18-0.13,0.31-0.3,0.39-0.49c0.35-0.3,0.43-0.81,0.21-1.27c-0.43-0.87-0.85-1.76-1.23-2.65
				l-0.06-0.11l-0.01,0c-1.76-4.31-3.02-9.08-3.72-14.19c-1.38-10.67-0.33-21.38,0.88-30.44l-0.04,0.18
				c0.43-3.05,0.83-5.8,1.25-8.38c0.44-2.78,1.02-5.78,1.76-9.17c1.4-6.39,3.15-12.77,4.68-18.18c0.67-2.35,1.34-4.7,2.02-7.05
				c2.74-9.51,5.58-19.34,7.52-29.22c0.59-3.01,1.1-6.06,1.5-9.07c0.42-3.15,0.68-5.94,0.81-8.52c0.25-5.02,0.01-10.33-0.72-15.77
				c-1.4-10.6-4.56-20.86-9.37-30.49c-3.64-7.29-8.18-13.88-13.5-19.58c-0.08-0.09-0.18-0.16-0.3-0.21
				C69.56,303.16,69.31,303.02,69.06,303.02"/>
			<path class="st8" d="M70.25,378.69c-1.75,4.11-3.39,8.27-4.93,12.46c0-0.01,0-0.01,0-0.02c-0.73,2.02-1.45,4.05-2.13,6.09
				c-2.98,8.87-5.46,17.9-7.39,27.05c-0.97,4.57-1.8,9.17-2.48,13.79c-0.68,4.62-1.22,9.25-1.61,13.91c0-0.02,0-0.04,0-0.07
				c-0.74,8.93-0.95,17.9-0.55,26.86c0.2,4.48,0.55,8.96,1.06,13.42c0.51,4.47,1.17,8.93,1.98,13.36c0-0.02-0.01-0.04-0.01-0.07
				c0.29,1.57,0.6,3.15,0.93,4.71c0.33,1.54,0.67,3.06,1.07,4.58c0.09,0.35,0.18,0.7,0.28,1.05c0.93-0.07,1.9-0.19,2.92-0.35
				c1.57-0.25,3.18-0.6,4.82-1.06c-2.04-6.45-3.55-13.05-4.61-19.73c-1.35-8.58-1.98-17.26-2.05-25.94
				c-0.07-8.82,0.42-17.63,1.34-26.4c0.93-8.88,2.28-17.72,3.97-26.49c3.1-16.09,7.27-31.96,12.12-47.61
				C73.33,371.69,71.75,375.17,70.25,378.69"/>
			<path class="st8" d="M61.27,305.51c-2.4,1.11-4.81,2.47-7.58,4.3c-2.09,1.37-4.32,2.98-7.02,5.07c-2.59,2.01-4.53,3.61-6.31,5.17
				c-3.96,3.5-7.67,7.56-11.03,12.06c-3,4.01-5.79,8.54-8.31,13.47c-5.33,10.42-8.81,21.67-11.25,30.3
				c-2.07,7.31-3.74,14.19-5.1,21.02c-1.44,7.22-2.57,14.48-3.36,21.59c-0.88,7.92-1.32,15.63-1.31,22.93
				c0.01,8.11,0.58,15.46,1.74,22.49c1.26,7.66,3.14,14.34,5.77,20.42c1.36,3.16,2.95,6.17,4.72,8.92c0.29,0.46,0.6,0.92,0.91,1.37
				c-0.75-2.71-1.41-5.43-1.99-8.18C8.72,475,7.64,463.3,7.61,451.61c-0.02-11.72,0.95-23.44,2.77-35.02
				c0.9-5.68,1.99-11.33,3.28-16.93c1.22-5.29,2.61-10.55,4.14-15.77c1.53-5.21,3.19-10.39,5.04-15.5
				c1.84-5.09,3.84-10.12,6.06-15.05c2.25-5.02,4.71-9.94,7.43-14.72c2.66-4.67,5.54-9.21,8.71-13.55
				c3.2-4.38,6.65-8.56,10.42-12.45c1.88-1.94,3.83-3.82,5.86-5.61c1.15-1.01,2.31-2,3.5-2.95
				C63.73,304.43,62.59,304.9,61.27,305.51"/>
			<path class="st11" d="M74.67,234.09c-0.2,0.17-0.32,0.43-0.34,0.7c-0.02,0.27,0.08,0.5,0.25,0.71c3.2,4.26,6.91,8.14,10.97,11.59
				c4.05,3.43,8.54,6.41,13.47,8.41c0.5,0.2,1.1-0.16,1.26-0.65c0.08-0.25,0.06-0.52-0.06-0.75c-0.13-0.25-0.33-0.4-0.59-0.51
				c-0.72-0.29-1.43-0.6-2.12-0.94c0.04,0.02,0.09,0.04,0.13,0.06c-4.17-2.02-7.98-4.7-11.49-7.72c0.01,0.01,0.02,0.02,0.03,0.02
				c-0.01-0.01-0.02-0.02-0.04-0.03c-0.06-0.05-0.11-0.1-0.17-0.14c0.03,0.03,0.06,0.05,0.09,0.07c-3.68-3.22-7.04-6.82-9.98-10.74
				c-0.17-0.23-0.45-0.33-0.73-0.34C75.1,233.84,74.85,233.93,74.67,234.09 M86.14,244.98C86.14,244.99,86.15,244.99,86.14,244.98
				c-0.02-0.02-0.05-0.04-0.08-0.07C86.09,244.94,86.12,244.96,86.14,244.98"/>
			<path class="st11" d="M163.91,238.81c-0.87,2.3-1.94,4.54-3.34,6.57c-0.33,0.46-0.68,0.91-1.05,1.34
				c-0.35,0.42-0.36,1.03,0.05,1.41c0.38,0.36,1.06,0.37,1.41-0.05c1.81-2.13,3.17-4.58,4.23-7.16c0.46-1.12,0.87-2.26,1.23-3.41
				c-0.25-1.52-0.55-3.03-0.82-4.54C165.16,234.95,164.6,236.9,163.91,238.81 M160.56,245.39c-0.04,0.05-0.08,0.11-0.12,0.17
				C160.48,245.5,160.51,245.44,160.56,245.39"/>
			<path class="st12" d="M132.98,236.8c-0.74,0.07-1.47,0.19-2.19,0.34c0.01,0,0.02,0,0.02-0.01c-2.67,0.59-5.2,1.67-7.63,2.92
				c-2.15,1.12-4.24,2.38-6.31,3.64c-2.01,1.22-4.01,2.47-6.09,3.56c-1.08,0.57-2.18,1.1-3.31,1.56c-1.25,0.52-2.52,0.97-3.81,1.42
				c-2.43,0.84-4.89,1.65-7.23,2.73c-0.28,0.59-0.53,1.19-0.77,1.8c0,0.01-0.01,0.02-0.01,0.03c-1.04,2.75-1.7,5.64-2,8.56
				c0-0.02,0-0.05,0.01-0.07c-0.25,2.54-0.22,5.11,0.2,7.64c0.15,0.85,0.33,1.7,0.59,2.53c0.25,0.83,0.54,1.64,0.9,2.43
				c0.26,0.59,0.57,1.17,0.91,1.72c0.18,0.29,0.36,0.57,0.56,0.85c1.82,1.04,3.81,2,6.04,2.92c2.33,0.97,4.83,1.81,7.62,2.56
				c2.84,0.77,5.5,1.32,8.15,1.68c2.14,0.28,4.33,0.42,6.5,0.42c3.2,0,6.45-0.3,9.69-0.9c11.47-2.14,21.46-8.21,27.41-16.68
				c0.36-0.51,0.71-1.05,1.04-1.59c0.36-1.55,0.61-3.11,0.78-4.7v0c0-0.01,0-0.02,0-0.03c0-0.02,0-0.03,0-0.04v0.02
				c0.16-1.64,0.21-3.28,0.15-4.93c-0.06-1.6-0.21-3.2-0.48-4.78l0,0c-0.23-1.28-0.52-2.55-0.9-3.8c-0.35-1.18-0.79-2.33-1.29-3.46
				c0,0,0,0.01,0,0.01c-0.01-0.02-0.02-0.04-0.02-0.05c0,0,0,0,0,0s0,0,0,0c-0.08-0.18-0.17-0.36-0.26-0.54
				c-0.24-0.01-0.47-0.02-0.71-0.03c-0.63-0.01-1.25-0.05-1.87-0.12c-0.54-0.06-1.08-0.14-1.62-0.26c-0.17-0.04-0.34-0.08-0.51-0.13
				c-0.26-0.04-0.51-0.09-0.77-0.15c-1.75-0.39-3.45-0.98-5.11-1.68c-3.43-1.43-6.7-3.22-10.22-4.4c-0.83-0.27-1.68-0.51-2.54-0.69
				c-0.84-0.18-1.7-0.3-2.57-0.36c-0.31-0.02-0.63-0.02-0.94-0.02C133.93,236.74,133.46,236.76,132.98,236.8 M130.79,237.14
				c-0.02,0-0.03,0.01-0.05,0.01C130.76,237.14,130.77,237.14,130.79,237.14"/>
			<path class="st12" d="M123.18,240.03c-2.09,1.08-4.09,2.29-6.31,3.64l-0.61,0.37c-1.68,1.03-3.58,2.19-5.49,3.19
				c-1.17,0.62-2.25,1.13-3.31,1.56c-1.29,0.53-2.59,0.99-3.8,1.42l-0.87,0.3l-0.12,0.04c-2.07,0.71-4.22,1.46-6.25,2.39
				c-0.26,0.56-0.52,1.15-0.78,1.81c-1.03,2.72-1.71,5.61-2.02,8.6c-0.26,2.65-0.19,5.2,0.21,7.58c0.16,0.94,0.36,1.77,0.59,2.54
				c0.25,0.85,0.56,1.67,0.9,2.42c0.28,0.63,0.59,1.21,0.91,1.73c0.18,0.29,0.36,0.57,0.56,0.85c1.8,1.03,3.78,1.99,6.04,2.92
				c2.33,0.97,4.82,1.81,7.62,2.56c2.83,0.77,5.5,1.33,8.16,1.69c2.16,0.28,4.34,0.43,6.5,0.43c0.27,0,0.54,0,0.8-0.01
				c-0.19-0.03-0.38-0.07-0.57-0.1c-1.86-0.34-3.69-0.8-5.48-1.41c-1.72-0.59-3.41-1.3-5-2.17c-1.55-0.84-3.02-1.82-4.35-2.98
				c-1.31-1.13-2.48-2.41-3.47-3.84c-1-1.46-1.8-3.05-2.36-4.73c-0.61-1.83-0.94-3.75-1.03-5.68c-0.05-1.17-0.03-2.34,0.1-3.5
				c0.13-1.08,0.34-2.16,0.69-3.19c0.32-0.95,0.72-1.86,1.23-2.72c0.5-0.84,1.07-1.62,1.72-2.34c1.38-1.53,3-2.8,4.71-3.93
				c0.95-0.63,1.91-1.22,2.89-1.79c0.56-0.33,1.12-0.65,1.66-1.01c0.51-0.33,1-0.67,1.49-1.02c0.01-0.01,0.01-0.01,0.03-0.02
				c0,0,0,0,0,0v0v0c2.47-1.78,4.77-3.78,7.22-5.58c1.2-0.89,2.44-1.74,3.75-2.46c0.07-0.04,0.15-0.08,0.22-0.12
				C127.49,238.02,125.48,238.85,123.18,240.03 M118.22,245.62c-0.01,0-0.02,0.01-0.02,0.02
				C118.21,245.63,118.21,245.62,118.22,245.62"/>
			<path class="st12" d="M118.2,245.64c0,0-0.01,0.01-0.02,0.01C118.19,245.65,118.19,245.64,118.2,245.64L118.2,245.64z"/>
			<path class="st12" d="M118.17,245.66C118.17,245.66,118.17,245.66,118.17,245.66c0,0,0.01,0,0.01-0.01
				C118.18,245.65,118.18,245.65,118.17,245.66"/>
			<polyline class="st12" points="105.4,257.4 105.4,257.39 105.4,257.4 			"/>
			<path class="st13" d="M128.81,244.48c-2.41,0.83-4.73,1.93-7.06,2.96c0,0,0.01,0,0.01,0c-0.81,0.36-1.63,0.7-2.45,1.03
				c-0.43,0.17-0.86,0.34-1.3,0.49c-0.54,0.19-1.09,0.35-1.64,0.53c-0.32,0.1-0.52,0.43-0.42,0.76c0.09,0.33,0.44,0.5,0.76,0.42
				c0.95-0.25,1.88-0.59,2.79-0.95c0.83-0.32,1.64-0.67,2.45-1.03c1.6-0.7,3.18-1.46,4.78-2.17c0,0-0.01,0-0.01,0
				c1.19-0.52,2.39-1,3.63-1.41c1.23-0.4,2.49-0.71,3.76-0.9c0.94-0.13,1.88-0.2,2.83-0.21c1.01,0,2.03,0.08,3.03,0.2
				c-0.02,0-0.05-0.01-0.07-0.01c1.07,0.14,2.13,0.32,3.18,0.54c1.11,0.22,2.21,0.49,3.32,0.74c1.04,0.24,2.09,0.48,3.14,0.68
				c1.08,0.2,2.16,0.37,3.25,0.48c0.14,0.01,0.25-0.13,0.25-0.25c0-0.15-0.12-0.23-0.25-0.25c-0.16-0.02-0.32-0.04-0.48-0.05
				c0,0,0.01,0,0.01,0l-0.03,0c-0.01,0-0.03,0-0.04-0.01c0,0,0.01,0,0.01,0c-1.34-0.17-2.66-0.44-3.98-0.75
				c-1.34-0.31-2.66-0.67-3.99-1c-1.33-0.33-2.67-0.64-4.02-0.87c-1.34-0.22-2.69-0.35-4.06-0.36h-0.05
				C133.65,243.1,131.18,243.66,128.81,244.48 M152.3,246.07c0.01,0,0.01,0,0.02,0c-0.02,0-0.03-0.01-0.05-0.01
				C152.28,246.07,152.29,246.07,152.3,246.07 M140.01,244.21c-0.01,0-0.02,0-0.03,0C139.98,244.2,139.99,244.2,140.01,244.21"/>
			<path class="st13" d="M154.89,256.67c-1.07,0.63-2.19,1.18-3.33,1.68c0.02-0.01,0.04-0.02,0.07-0.03
				c-3.72,1.62-7.69,2.63-11.7,3.23c0,0,0.01,0,0.01,0c-0.02,0-0.04,0-0.05,0.01c-0.02,0-0.04,0.01-0.05,0.01c0,0,0.01,0,0.01,0
				c-5.24,0.76-10.6,0.78-15.85,0.15c0.06,0.01,0.12,0.02,0.18,0.02c-0.98-0.12-1.96-0.26-2.93-0.43c-0.47-0.08-0.95-0.17-1.42-0.26
				c-0.51-0.11-1.02-0.23-1.52-0.34c-0.42-0.09-0.85,0.14-0.96,0.57c-0.1,0.41,0.15,0.86,0.57,0.95c1.17,0.26,2.36,0.44,3.54,0.6
				c1.25,0.16,2.5,0.28,3.76,0.36c1.28,0.07,2.57,0.11,3.86,0.11c1.31-0.01,2.63-0.07,3.93-0.14c1.32-0.08,2.65-0.22,3.96-0.38
				c1.29-0.16,2.58-0.36,3.86-0.61c2.54-0.48,5.05-1.13,7.49-1.96c2.37-0.82,4.67-1.84,6.84-3.11c0.12-0.07,0.15-0.23,0.08-0.34
				c-0.05-0.08-0.13-0.12-0.21-0.12C154.97,256.63,154.93,256.64,154.89,256.67 M139.84,261.56c0.01,0,0.03,0,0.04-0.01
				c0.01,0,0.03,0,0.04-0.01C139.9,261.55,139.87,261.56,139.84,261.56"/>
			<path class="st13" d="M156.74,264.13c-0.69,0.73-1.44,1.4-2.22,2.02c-0.94,0.73-1.91,1.39-2.93,1.98
				c-1.11,0.65-2.27,1.22-3.44,1.73c-0.83,0.36-1.67,0.69-2.51,0.99c-0.93,0.33-1.89,0.62-2.84,0.89c-1.86,0.52-3.76,0.91-5.68,1.21
				c-4.65,0.71-9.42,0.89-14.1,0.36c0.06,0.01,0.13,0.02,0.19,0.02c-1.14-0.13-2.28-0.3-3.41-0.52c-0.54-0.11-1.07-0.22-1.61-0.35
				c-0.26-0.06-0.51-0.13-0.77-0.2c-0.29-0.08-0.58-0.14-0.86-0.24c-0.34-0.11-0.71,0.15-0.79,0.47c-0.04,0.17-0.02,0.35,0.07,0.5
				c0.09,0.16,0.23,0.24,0.4,0.3c0.21,0.07,0.42,0.15,0.63,0.22c0.22,0.07,0.43,0.14,0.65,0.21c0.48,0.14,0.97,0.27,1.46,0.38
				c0.98,0.23,1.98,0.41,2.99,0.54c2.18,0.29,4.36,0.39,6.56,0.36c2.3-0.04,4.58-0.25,6.85-0.6c1.14-0.18,2.28-0.39,3.4-0.64
				s2.23-0.55,3.34-0.88c2.89-0.85,5.71-1.96,8.35-3.41c2.44-1.34,4.71-2.97,6.63-5c0.09-0.1,0.09-0.26,0-0.36
				c-0.05-0.05-0.11-0.07-0.17-0.07C156.85,264.05,156.79,264.08,156.74,264.13 M137.09,272.96c-0.01,0-0.02,0-0.03,0.01
				C137.07,272.96,137.08,272.96,137.09,272.96"/>
			<path class="st0" d="M139.17,172.05L139.17,172.05h-0.31c-2.3,0-4.74,0.25-7.69,0.77c-2.16,0.38-4.48,0.9-7.31,1.63
				c-2.68,0.69-5.47,1.57-8.29,2.61c-5.28,1.93-10.64,4.47-15.94,7.53c-5.07,2.93-9.94,6.29-14.46,9.96
				c-4.91,3.99-8.39,7.57-10.98,11.26c-1.51,2.17-2.71,4.43-3.55,6.73c-0.89,2.43-1.36,4.97-1.4,7.56
				c-0.03,1.75,0.16,3.67,0.56,5.87c0.38,2.13,0.96,4.15,1.7,6.02c0.85,2.12,1.91,3.84,3.17,5.11c1.46,1.47,3.26,2.36,5.08,2.51
				c0.12,0.01,0.23,0.01,0.35,0.01c0.59,0,1.18-0.11,1.73-0.34c0.56-0.22,1.07-0.62,1.61-1.24c0.48-0.56,0.79-1.27,0.97-1.76
				c0.28-0.74,0.44-1.52,0.55-2.18c0.22-1.29,0.28-2.7,0.2-4.57c-0.04-1.03-0.12-2.09-0.25-3.26c0.76,0.06,1.56,0.08,2.35,0.08
				c4.67,0,9.68-0.87,14.89-2.58c4.57-1.49,9.14-3.63,13.57-6.34c4.38-2.68,8.55-5.84,12.4-9.38c3.96-3.65,7.47-7.62,10.42-11.8
				c4.94-6.98,7.98-14.15,9.05-21.31c0.05-0.36-0.14-0.73-0.5-0.94c-0.1-0.26-0.32-0.49-0.6-0.61
				C144.46,172.51,142.07,172.07,139.17,172.05"/>
			<path class="st1" d="M141.02,178.19c-0.35,0.73-0.71,1.44-1.09,2.16c-2.52,4.61-5.69,8.82-9.33,12.61
				c0.01-0.01,0.01-0.01,0.01-0.01c-2.43,2.5-5.05,4.78-7.78,6.94c-2.81,2.23-5.76,4.32-8.83,6.17c-6.78,4.02-14.04,7.3-21.62,9.51
				c0.14-0.04,0.29-0.09,0.44-0.13c-1.13,0.33-2.27,0.63-3.41,0.9c-1.13,0.27-2.26,0.49-3.4,0.71c-0.49,0.1-0.92,0.33-1.22,0.74
				c-0.29,0.4-0.41,0.9-0.34,1.39c0.15,0.97,1.13,1.75,2.13,1.56c1.35-0.27,2.7-0.62,4.03-0.98c1.46-0.39,2.9-0.82,4.33-1.29
				c2.75-0.9,5.43-1.94,8.06-3.14c2.69-1.22,5.31-2.59,7.86-4.1c1.34-0.79,2.66-1.61,3.95-2.48c1.24-0.83,2.46-1.69,3.66-2.56
				c4.82-3.51,9.2-7.59,13.09-12.1c0.95-1.1,1.89-2.22,2.77-3.38c0.88-1.15,1.73-2.32,2.54-3.51c1.6-2.34,3.05-4.79,4.33-7.32
				c0.23-0.45,0.45-0.91,0.67-1.37c0.11-0.23-0.05-0.51-0.26-0.59c-0.06-0.02-0.11-0.03-0.16-0.03
				C141.27,177.89,141.1,178.01,141.02,178.19 M139.92,180.35c-0.01,0.01-0.02,0.03-0.02,0.05
				C139.91,180.38,139.92,180.36,139.92,180.35 M113.98,206.06c-0.04,0.02-0.08,0.05-0.11,0.07
				C113.9,206.11,113.94,206.08,113.98,206.06"/>
			<path class="st1" d="M132.08,184.01c-0.91,1.11-1.87,2.19-2.87,3.23c0.02-0.02,0.03-0.04,0.05-0.05
				c-0.85,0.88-1.72,1.75-2.62,2.59c-0.93,0.87-1.88,1.7-2.86,2.51c-0.99,0.82-2.01,1.6-3.05,2.35c-1.08,0.79-2.17,1.53-3.32,2.22
				c0.07-0.04,0.14-0.08,0.21-0.12c-1.28,0.76-2.57,1.5-3.91,2.14c-1.31,0.63-2.67,1.16-4.05,1.61c-0.28,0.09-0.51,0.38-0.61,0.65
				c-0.11,0.28-0.1,0.59,0.02,0.86c0.12,0.28,0.36,0.51,0.65,0.62c0.1,0.02,0.19,0.05,0.29,0.07c0.2,0.02,0.39-0.01,0.57-0.09
				c2.22-0.7,4.31-1.84,6.27-3.1c1.01-0.64,1.96-1.35,2.91-2.08c1.01-0.79,1.99-1.6,2.95-2.46c3.61-3.22,6.86-6.81,9.88-10.58
				c0.1-0.13,0.06-0.34-0.07-0.43c-0.06-0.04-0.12-0.06-0.18-0.06C132.24,183.89,132.15,183.93,132.08,184.01"/>
			<path class="st1" d="M80.5,227c-0.18,0.03-0.34,0.13-0.45,0.27c-0.1,0.13-0.17,0.34-0.13,0.51c0.22,0.83,0.34,1.66,0.37,2.52
				c0.01,0.58-0.03,1.15-0.09,1.72c-0.07,0.62-0.2,1.23-0.34,1.84c-0.04,0.21,0.06,0.46,0.18,0.62c0.14,0.18,0.36,0.29,0.58,0.32
				c0.48,0.05,0.87-0.3,0.94-0.76c0.33-2.14,0.29-4.37-0.29-6.46c-0.05-0.18-0.11-0.33-0.27-0.45c-0.12-0.09-0.26-0.13-0.41-0.13
				C80.57,226.99,80.54,226.99,80.5,227"/>
			<path class="st1" d="M67.61,188.01c-0.94,0.41-1.86,0.85-2.74,1.38c-0.93,0.55-1.84,1.15-2.71,1.8
				c-1.84,1.39-3.49,3.02-5.02,4.73c-1.59,1.79-3.01,3.74-4.28,5.76c-1.31,2.09-2.44,4.32-3.38,6.61c-0.68,1.67-1.23,3.4-1.66,5.15
				c-0.43,1.77-0.76,3.55-0.9,5.37c-0.13,1.74-0.09,3.52,0.13,5.25c0.11,0.8,0.27,1.59,0.47,2.37c0.13,0.5,0.27,1,0.44,1.48
				c0.14,0.39,0.33,0.77,0.49,1.15c0.33,0.8,1.29,1.16,2.08,0.82c0.8-0.34,1.15-1.29,0.82-2.08c-0.16-0.39-0.28-0.79-0.41-1.18
				c-0.11-0.34-0.22-0.68-0.33-1.03c-0.45-1.65-0.68-3.35-0.75-5.07c-0.05-2.54,0.24-5.07,0.81-7.54c0.85-3.53,2.19-6.93,3.91-10.14
				c1.65-3.01,3.65-5.83,6.02-8.32c0,0,0,0-0.01,0.01c0.89-0.92,1.83-1.78,2.82-2.59c1.01-0.82,2.07-1.55,3.17-2.22
				c0.47-0.27,0.94-0.52,1.43-0.74c0.26-0.12,0.39-0.43,0.27-0.69c-0.08-0.2-0.29-0.32-0.49-0.32
				C67.75,187.97,67.68,187.98,67.61,188.01 M49.87,220.2c0,0.06,0,0.12,0,0.18C49.87,220.32,49.87,220.26,49.87,220.2"/>
			<path class="st1" d="M63.92,196.41c-0.78,0.72-1.51,1.48-2.18,2.31c-0.72,0.89-1.33,1.85-1.88,2.85
				c-1.06,1.95-1.81,4.04-2.42,6.17c-0.05,0.16-0.05,0.3,0.01,0.45c0.06,0.15,0.19,0.27,0.34,0.32c0.15,0.05,0.31,0.05,0.45-0.01
				c0.21-0.09,0.32-0.27,0.36-0.49c0.08-0.46,0.16-0.93,0.27-1.39c0.46-1.91,1.16-3.77,2.09-5.5c0.37-0.66,0.76-1.29,1.19-1.91
				c0.47-0.67,0.98-1.3,1.54-1.9c0,0,0,0,0,0c0.18-0.18,0.36-0.35,0.54-0.53c0.1-0.09,0.13-0.24,0.04-0.35
				c-0.05-0.06-0.13-0.1-0.2-0.1C64.01,196.36,63.96,196.38,63.92,196.41"/>
			<path class="st1" d="M50.36,259.42c-1.14,2.83-2.16,5.73-2.8,8.72c-0.61,2.86-0.87,5.79-0.86,8.71c0.01,2.95,0.39,5.87,1.03,8.74
				c0.33,1.48,0.75,2.93,1.23,4.37c0.49,1.47,1.03,2.93,1.72,4.32c0.05,0.1,0.11,0.2,0.16,0.31c0.13,0.19,0.3,0.34,0.51,0.44
				c0.32,0.16,0.7,0.18,1.03,0.06c0.33-0.11,0.6-0.36,0.75-0.66c0.15-0.29,0.21-0.73,0.06-1.04c-0.41-0.84-0.83-1.68-1.23-2.54
				c-0.41-0.89-0.77-1.8-1.12-2.73c-0.63-1.72-1.13-3.49-1.51-5.28c-0.69-3.42-0.94-6.9-0.74-10.39c0,0.02,0,0.05-0.01,0.07
				c0-0.05,0.01-0.09,0.01-0.13c0-0.03,0-0.06,0.01-0.1l0,0.06c0.13-1.79,0.37-3.58,0.69-5.35c0.35-1.91,0.83-3.79,1.45-5.63
				c0.17-0.51,0.37-1.01,0.56-1.5c0.11-0.27,0.03-0.58-0.24-0.71c-0.07-0.04-0.15-0.05-0.23-0.05
				C50.64,259.12,50.44,259.23,50.36,259.42 M48.61,272.4c0,0.02,0,0.04,0,0.06c0-0.03,0-0.07,0.01-0.1L48.61,272.4z"/>
			<path class="st6" d="M173.43,207.1c-0.11,1.33-0.15,2.66-0.08,4c0.06,1.24,0.23,2.46,0.47,3.68c0.45,2.31,1.28,4.52,2.35,6.62
				c2.18,4.29,5.49,7.89,8.83,11.31c0.78,0.8,1.58,1.59,2.37,2.39c0.83,0.83,1.66,1.63,2.43,2.51c1.52,1.78,2.86,3.71,3.9,5.81
				c0.77,1.63,1.36,3.34,1.72,5.1c0.24,1.38,0.34,2.79,0.25,4.19c-0.14,1.46-0.47,2.9-0.95,4.29c-0.29,0.76-0.63,1.5-1.02,2.22
				c-0.44,0.83-0.07,1.89,0.74,2.31c0.8,0.41,1.93,0.11,2.32-0.75c0.63-1.4,1.15-2.86,1.5-4.35c0.32-1.39,0.42-2.84,0.41-4.25
				c-0.01-1.38-0.21-2.73-0.51-4.08c-0.28-1.26-0.72-2.49-1.27-3.66c-1.16-2.5-2.75-4.77-4.6-6.81c-1.79-1.96-3.87-3.63-5.84-5.4
				c-1.92-1.73-3.78-3.52-5.47-5.47c0.01,0.01,0.02,0.03,0.04,0.04c-1.83-2.13-3.49-4.44-4.73-6.97c0.02,0.03,0.03,0.06,0.04,0.09
				c-0.89-1.84-1.54-3.79-1.93-5.79c0,0.01,0,0.01,0,0.02c-0.42-2.25-0.51-4.54-0.34-6.82c0-0.03,0.01-0.06,0.01-0.09
				c0.01-0.18-0.06-0.35-0.25-0.39c-0.02,0-0.04-0.01-0.06-0.01C173.61,206.85,173.44,206.95,173.43,207.1 M174.05,207.35
				c0,0.02,0,0.04,0,0.06C174.05,207.39,174.05,207.37,174.05,207.35 M195.67,252.76c-0.01,0.07-0.01,0.14-0.01,0.21
				C195.66,252.9,195.66,252.83,195.67,252.76 M180.97,226.75c-0.02-0.02-0.03-0.04-0.05-0.06
				C180.94,226.71,180.95,226.73,180.97,226.75"/>
			<path class="st6" d="M179.81,279.37c-0.13,1-0.17,2.01-0.12,3.02c0.06,1.04,0.22,2.06,0.43,3.07c0.42,2,1.17,3.9,2.01,5.76
				c0.44,0.97,0.93,1.93,1.41,2.88c0.5,0.98,1,1.96,1.53,2.92c1.04,1.89,2.06,3.81,3.01,5.75c1.07,2.23,1.99,4.53,2.49,6.95
				c0.22,1.25,0.3,2.51,0.22,3.77c-0.13,1.26-0.4,2.5-0.8,3.71c-0.47,1.28-1.07,2.52-1.79,3.69c-0.25,0.4-0.25,0.97-0.11,1.41
				c0.15,0.45,0.47,0.82,0.89,1.04c0.43,0.22,0.94,0.26,1.41,0.11c0.48-0.16,0.78-0.48,1.04-0.89c0.72-1.14,1.36-2.3,1.84-3.56
				c0.47-1.21,0.83-2.45,1.02-3.74c0.35-2.4,0.14-4.81-0.47-7.15c-0.57-2.2-1.59-4.3-2.71-6.27c-1.13-1.97-2.44-3.82-3.74-5.68
				c-1.61-2.33-3.26-4.64-4.51-7.19l0.09,0.19c-0.8-1.63-1.47-3.34-1.83-5.13c0.01,0.03,0.01,0.06,0.01,0.09
				c-0.01-0.05-0.02-0.1-0.03-0.14c0-0.01,0-0.02-0.01-0.03l0,0.02c-0.21-1.18-0.29-2.39-0.21-3.59c0.02-0.24,0.04-0.49,0.08-0.73
				c0.04-0.33-0.12-0.65-0.47-0.73c-0.04-0.01-0.08-0.01-0.12-0.01C180.14,278.89,179.84,279.08,179.81,279.37 M181.13,283.95
				c0,0.02,0.01,0.04,0.01,0.06C181.14,283.99,181.13,283.97,181.13,283.95C181.13,283.95,181.13,283.95,181.13,283.95"/>
			<path class="st6" d="M192.89,285.06c-0.15,0.1-0.16,0.27-0.09,0.42c0.34,0.64,0.68,1.27,1.01,1.91c0.35,0.68,0.69,1.36,1.02,2.04
				c-0.01-0.02-0.02-0.05-0.03-0.07c0.54,1.12,1.05,2.26,1.49,3.43c0.44,1.17,0.78,2.36,1.02,3.59c0.22,1.2,0.34,2.42,0.3,3.65
				c0,0.26,0.15,0.54,0.34,0.71c0.2,0.18,0.47,0.27,0.74,0.26c0.56-0.03,1-0.52,0.97-1.08c-0.1-1.41-0.32-2.82-0.74-4.18
				c-0.38-1.26-0.95-2.47-1.55-3.64c-0.61-1.17-1.31-2.28-2-3.41c-0.34-0.55-0.68-1.1-1.02-1.65c-0.38-0.61-0.72-1.25-1.06-1.88
				c-0.05-0.09-0.15-0.13-0.25-0.13C193,285.01,192.94,285.03,192.89,285.06 M197.29,296.2c0.01,0.06,0.02,0.11,0.03,0.17
				C197.31,296.31,197.3,296.26,197.29,296.2"/>
		</g>
	</g>
</g>
</svg>
